  0
SECTION
  2
HEADER
  9
$ACADVER
  1
AC1009
  9
$MEASUREMENT
  70
0
  9
$INSUNITS
  70
1
  9
$DIMLFAC
  40
0.999999995904
  9
$INSBASE
  10
0.0
  20
0.0
  30
0.0
  9
$EXTMIN
  10
-0.000000030037
  20
-0.787401736192
  9
$EXTMAX
  10
7.369479159808
  20
2.708661338112
  9
$LIMMIN
  10
-0.000000030037
  20
-0.787401736192
  9
$LIMMAX
  10
7.369479159808
  20
2.708661338112
  9
$CLAYER
  8
0
  0
ENDSEC
  0
SECTION
  2
TABLES
  0
TABLE
  2
LTYPE
  70
2
  0
LTYPE
  2
CONTINUOUS
  70
65
  3
Solid line
  72
65
  73
0
  40
0
  0
LTYPE
  2
DASHED
  70
65
  3
 _ _ _ _ _ _ _ _ _ _ _ _ _ _ _ _ _ _ _ _ _ _
  72
65
  73
2
  40
1.999999991808
  49
0.999999995904
  49
-0.999999995904
  0
ENDTAB
  0
TABLE
  2
LAYER
  70
1
  0
LAYER
  2
0
  70
0
  62
7
  6
CONTINUOUS
  0
ENDTAB
  0
ENDSEC
  0
SECTION
  2
BLOCKS
  0
ENDSEC
  0
SECTION
  2
ENTITIES
  0
CIRCLE
  8
0
  10
2.366407180288
  20
2.35431657472
  30
0
  40
0.166338576384
  0
CIRCLE
  8
0
  10
2.366407180288
  20
2.35431657472
  30
0.03125984256
  40
0.186023624704
  0
CIRCLE
  8
0
  10
2.138733805568
  20
2.122913415168
  30
0
  40
0.024606298112
  0
CIRCLE
  8
0
  10
2.05627588608
  20
2.354326274048
  30
0.03125984256
  40
0.031495999488
  0
CIRCLE
  8
0
  10
2.138733805568
  20
2.122913415168
  30
0.03125984256
  40
0.031495999488
  0
CIRCLE
  8
0
  10
2.05627588608
  20
2.354326274048
  30
0
  40
0.024606298112
  0
CIRCLE
  8
0
  10
2.132549566464
  20
2.578885902336
  30
0.03125984256
  40
0.031495999488
  0
CIRCLE
  8
0
  10
2.132549566464
  20
2.578885902336
  30
0
  40
0.024606298112
  0
CIRCLE
  8
0
  10
2.386668814336
  20
2.65532604416
  30
0.03125984256
  40
0.031495999488
  0
CIRCLE
  8
0
  10
2.386668814336
  20
2.65532604416
  30
0
  40
0.024606298112
  0
CIRCLE
  8
0
  10
2.653261398016
  20
2.607520415744
  30
0.03125984256
  40
0.031495999488
  0
CIRCLE
  8
0
  10
2.653261398016
  20
2.607520415744
  30
0
  40
0.024606298112
  0
CIRCLE
  8
0
  10
2.387144081408
  20
2.05363150848
  30
0.03125984256
  40
0.031495999488
  0
CIRCLE
  8
0
  10
2.387144081408
  20
2.05363150848
  30
0
  40
0.024606298112
  0
CIRCLE
  8
0
  10
2.653261398016
  20
2.108346466304
  30
0.03125984256
  40
0.031495999488
  0
CIRCLE
  8
0
  10
2.653261398016
  20
2.108346466304
  30
0
  40
0.024606298112
  0
CIRCLE
  8
0
  10
2.66707664896
  20
2.35431657472
  30
0
  40
0.035433070592
  0
LINE
  8
0
  10
2.741976159764
  20
1.999999969963
  30
0.03125984252
  11
2.741976159764
  21
2.708661387286
  31
0.03125984252
  0
LINE
  8
0
  10
2.741976159764
  20
2.708661237101
  30
0.03125984252
  11
2.180952537717
  21
2.708661237101
  31
0.03125984252
  0
LINE
  8
0
  10
2.180952537717
  20
2.708661237101
  30
0.03125984252
  11
2.000000014972
  21
2.527708714356
  31
0.03125984252
  0
LINE
  8
0
  10
1.999999969963
  20
2.527708819532
  30
0.03125984252
  11
1.999999969963
  21
2.180952447698
  31
0.03125984252
  0
LINE
  8
0
  10
1.999999969963
  20
2.180952387532
  30
0.03125984252
  11
2.180952492708
  21
1.999999864787
  31
0.03125984252
  0
LINE
  8
0
  10
2.180952537717
  20
1.999999969963
  30
0.03125984252
  11
2.741976159764
  21
1.999999969963
  31
0.03125984252
  0
LINE
  8
0
  10
2.236378737322
  20
2.107137094332
  30
0.015511811024
  11
2.537118739834
  21
2.107137094332
  31
0.015511811024
  0
LINE
  8
0
  10
2.537118806614
  20
2.107137094332
  30
0.015511811024
  11
2.599756218333
  21
2.169774506052
  31
0.015511811024
  0
LINE
  8
0
  10
2.599756135715
  20
2.169774573619
  30
0.015511811024
  11
2.599756135715
  21
2.210785072307
  31
0.015511811024
  0
LINE
  8
0
  10
2.599756135715
  20
2.210784972183
  30
0.015511811024
  11
2.741976144349
  21
2.210789412448
  31
0.015511811024
  0
LINE
  8
0
  10
2.741976159764
  20
2.210789477731
  30
0.015511811024
  11
2.741976159764
  21
2.497862968545
  31
0.015511811024
  0
LINE
  8
0
  10
2.741976159764
  20
2.497863018607
  30
0.015511811024
  11
2.599756151131
  21
2.497858578342
  31
0.015511811024
  0
LINE
  8
0
  10
2.599756135715
  20
2.497858513059
  30
0.015511811024
  11
2.599756135715
  21
2.538869011746
  31
0.015511811024
  0
LINE
  8
0
  10
2.599756135715
  20
2.538869061808
  30
0.015511811024
  11
2.537434271726
  21
2.601820439575
  31
0.015511811024
  0
LINE
  8
0
  10
2.53743419497
  20
2.601820277417
  30
0.015511811024
  11
2.236694192458
  21
2.601820277417
  31
0.015511811024
  0
LINE
  8
0
  10
2.236694275864
  20
2.601820277417
  30
0.015511811024
  11
2.112551417955
  21
2.477353151619
  31
0.015511811024
  0
LINE
  8
0
  10
2.112551411306
  20
2.477353313776
  30
0.015511811024
  11
2.112551411306
  21
2.23129032165
  31
0.015511811024
  0
LINE
  8
0
  10
2.112551411306
  20
2.231287918692
  30
0.015511811024
  11
2.236378721484
  21
2.107137164852
  31
0.015511811024
  0
TEXT
  8
0
  40
0.1
  72
0
  10
2.233192864365
  20
1.606299032377
  30
0
  1
Top
  50
0
  0
LINE
  8
0
  6
DASHED
  10
3.680802743266
  20
2.708661086916
  30
0.03125984252
  11
3.680802743266
  21
1.999999669593
  31
0.03125984252
  0
LINE
  8
0
  6
DASHED
  10
3.680802743266
  20
1.999999819778
  30
0.03125984252
  11
3.119779121219
  21
1.999999819778
  31
0.03125984252
  0
LINE
  8
0
  6
DASHED
  10
3.119779121219
  20
1.999999819778
  30
0.03125984252
  11
2.938826598474
  21
2.180952342523
  31
0.03125984252
  0
LINE
  8
0
  6
DASHED
  10
2.938826553465
  20
2.180952237347
  30
0.03125984252
  11
2.938826553465
  21
2.527708609181
  31
0.03125984252
  0
LINE
  8
0
  6
DASHED
  10
2.938826553465
  20
2.527708669347
  30
0.03125984252
  11
3.119779076209
  21
2.708661192092
  31
0.03125984252
  0
LINE
  8
0
  6
DASHED
  10
3.119779121219
  20
2.708661086916
  30
0.03125984252
  11
3.680802743266
  21
2.708661086916
  31
0.03125984252
  0
LINE
  8
0
  6
DASHED
  10
3.175205320824
  20
2.601523962547
  30
0.015748031731
  11
3.475945323336
  21
2.601523962547
  31
0.015748031731
  0
LINE
  8
0
  6
DASHED
  10
3.475945390116
  20
2.601523962547
  30
0.015748031731
  11
3.538582801835
  21
2.538886550827
  31
0.015748031731
  0
LINE
  8
0
  6
DASHED
  10
3.538582719217
  20
2.53888648326
  30
0.015748031731
  11
3.538582719217
  21
2.497875984572
  31
0.015748031731
  0
LINE
  8
0
  6
DASHED
  10
3.538582719217
  20
2.497876084696
  30
0.015748031731
  11
3.68080272785
  21
2.497871644431
  31
0.015748031731
  0
LINE
  8
0
  6
DASHED
  10
3.680802743266
  20
2.497871579148
  30
0.015748031731
  11
3.680802743266
  21
2.210798088334
  31
0.015748031731
  0
LINE
  8
0
  6
DASHED
  10
3.680802743266
  20
2.210798038272
  30
0.015748031731
  11
3.538582734633
  21
2.210802478537
  31
0.015748031731
  0
LINE
  8
0
  6
DASHED
  10
3.538582719217
  20
2.21080254382
  30
0.015748031731
  11
3.538582719217
  21
2.169792045133
  31
0.015748031731
  0
LINE
  8
0
  6
DASHED
  10
3.538582719217
  20
2.169791995071
  30
0.015748031731
  11
3.476260855228
  21
2.106840617304
  31
0.015748031731
  0
LINE
  8
0
  6
DASHED
  10
3.476260778472
  20
2.106840779462
  30
0.015748031731
  11
3.17552077596
  21
2.106840779462
  31
0.015748031731
  0
LINE
  8
0
  6
DASHED
  10
3.175520859365
  20
2.106840779462
  30
0.015748031731
  11
3.051378001457
  21
2.23130790526
  31
0.015748031731
  0
LINE
  8
0
  6
DASHED
  10
3.051377994808
  20
2.231307743103
  30
0.015748031731
  11
3.051377994808
  21
2.477370735229
  31
0.015748031731
  0
LINE
  8
0
  6
DASHED
  10
3.051377994808
  20
2.477373138187
  30
0.015748031731
  11
3.175205304986
  21
2.601523892027
  31
0.015748031731
  0
CIRCLE
  8
0
  10
3.305233782671
  20
2.354344495638
  30
0
  40
0.186023622047
  0
CIRCLE
  8
0
  10
3.305233782671
  20
2.354344495638
  30
0
  40
0.166338582677
  0
CIRCLE
  8
0
  10
3.60590311486
  20
2.354344495638
  30
0
  40
0.035433070866
  0
CIRCLE
  8
0
  10
3.592087903361
  20
2.101140660564
  30
0
  40
0.024606299213
  0
CIRCLE
  8
0
  10
3.325970717302
  20
2.655029597245
  30
0
  40
0.024606299213
  0
CIRCLE
  8
0
  10
3.592087903361
  20
2.600314673476
  30
0
  40
0.024606299213
  0
CIRCLE
  8
0
  10
3.325495532179
  20
2.053334994579
  30
0
  40
0.024606299213
  0
CIRCLE
  8
0
  10
3.077560334694
  20
2.585747786394
  30
0
  40
0.024606299213
  0
CIRCLE
  8
0
  10
2.995102349229
  20
2.354334883803
  30
0
  40
0.024606299213
  0
CIRCLE
  8
0
  10
3.07137616976
  20
2.129775220015
  30
0
  40
0.024606299213
  0
TEXT
  8
0
  40
0.1
  72
0
  10
3.172019372775
  20
1.606299032377
  30
0
  1
Bottom
  50
0
  0
LINE
  8
0
  10
4.58631455429
  20
2.031259691621
  30
0.741976189801
  11
4.58631455429
  21
1.999999847938
  31
0.741976189801
  0
LINE
  8
0
  10
3.877653136967
  20
1.999999847938
  30
0.741976189801
  11
3.877653136967
  21
2.031259691621
  31
0.741976189801
  0
LINE
  8
0
  10
3.877653136967
  20
2.031259691621
  30
0.741976189801
  11
4.58631455429
  21
2.031259691621
  31
0.741976189801
  0
LINE
  8
0
  10
4.58631455429
  20
1.999999847938
  30
0.741976189801
  11
3.877653136967
  21
1.999999847938
  31
0.741976189801
  0
LINE
  8
0
  6
DASHED
  10
4.479177204643
  20
2.031259649382
  30
0.629424748458
  11
4.479177201889
  21
2.015511616478
  31
0.629424748458
  0
LINE
  8
0
  6
DASHED
  10
3.984493718435
  20
2.015511700957
  30
0.629424748458
  11
3.984493721189
  21
2.031259733861
  31
0.629424748458
  0
LINE
  8
0
  6
DASHED
  10
3.984493721189
  20
2.031259735875
  30
0.629424748458
  11
4.479177204643
  21
2.031259649382
  31
0.629424748458
  0
LINE
  8
0
  6
DASHED
  10
4.479177204643
  20
2.015511615304
  30
0.629424748458
  11
3.984493721189
  21
2.015511701798
  31
0.629424748458
  0
LINE
  8
0
  10
4.4180213748
  20
2.031259691621
  30
0.561592522569
  11
4.4180213748
  21
2.015511659891
  31
0.561592522569
  0
LINE
  8
0
  10
4.045974100669
  20
2.015511659891
  30
0.561592522569
  11
4.045974100669
  21
2.031259691621
  31
0.561592522569
  0
LINE
  8
0
  10
4.045974100669
  20
2.031259691621
  30
0.561592522569
  11
4.4180213748
  21
2.031259691621
  31
0.561592522569
  0
LINE
  8
0
  10
4.4180213748
  20
2.015511658717
  30
0.561592522569
  11
4.045974100669
  21
2.015511658717
  31
0.561592522569
  0
LINE
  8
0
  10
4.231997737734
  20
2.031259691621
  30
0
  11
4.231997737734
  21
2.015511658717
  31
0
  0
LINE
  8
0
  6
DASHED
  10
4.398336260338
  20
2.031259663462
  30
0.541907483199
  11
4.398336254872
  21
1.999999819778
  31
0.541907483199
  0
LINE
  8
0
  6
DASHED
  10
4.065659059481
  20
1.999999876097
  30
0.541907483199
  11
4.065659064946
  21
2.031259719781
  31
0.541907483199
  0
LINE
  8
0
  6
DASHED
  10
4.065659064946
  20
2.031259721629
  30
0.541907483199
  11
4.398336260338
  21
2.031259663462
  31
0.541907483199
  0
LINE
  8
0
  6
DASHED
  10
4.398336260338
  20
1.999999819778
  30
0.541907483199
  11
4.065659064946
  21
1.999999877945
  31
0.541907483199
  0
LINE
  8
0
  10
4.231997662642
  20
2.031259691621
  30
0
  11
4.231997662642
  21
1.999999847938
  31
0
  0
LINE
  8
0
  6
DASHED
  10
4.267430943767
  20
2.015511652851
  30
0.110332759347
  11
4.267430941055
  21
1.999999842071
  31
0.110332759347
  0
LINE
  8
0
  6
DASHED
  10
4.196564679175
  20
1.999999853804
  30
0.110332759347
  11
4.196564681887
  21
2.015511664584
  31
0.110332759347
  0
LINE
  8
0
  6
DASHED
  10
4.196564681887
  20
2.015511665241
  30
0.110332759347
  11
4.267430943767
  21
2.015511652851
  31
0.110332759347
  0
LINE
  8
0
  6
DASHED
  10
4.267430943767
  20
1.999999842071
  30
0.110332759347
  11
4.196564681887
  21
1.999999854462
  31
0.110332759347
  0
LINE
  8
0
  10
4.231997812827
  20
2.015511658717
  30
0
  11
4.231997812827
  21
1.999999847938
  31
0
  0
LINE
  8
0
  6
DASHED
  10
4.488007402796
  20
2.031259686928
  30
0.627848707785
  11
4.48800739733
  21
1.999999843244
  31
0.627848707785
  0
LINE
  8
0
  6
DASHED
  10
4.438794798905
  20
1.999999852631
  30
0.627848707785
  11
4.43879480437
  21
2.031259696315
  31
0.627848707785
  0
LINE
  8
0
  6
DASHED
  10
4.43879480437
  20
2.031259695533
  30
0.627848707785
  11
4.488007402796
  21
2.031259686928
  31
0.627848707785
  0
LINE
  8
0
  6
DASHED
  10
4.488007402796
  20
1.999999843244
  30
0.627848707785
  11
4.43879480437
  21
1.999999851849
  31
0.627848707785
  0
LINE
  8
0
  10
4.494897136538
  20
1.999999846774
  30
0
  11
4.431905070628
  21
1.999999846774
  31
0
  0
LINE
  8
0
  10
4.431905070628
  20
1.999999846774
  30
0
  11
4.431905070628
  21
2.031259690457
  31
0
  0
LINE
  8
0
  10
4.431905070628
  20
2.031259691621
  30
0
  11
4.494897136538
  21
2.031259691621
  31
0
  0
LINE
  8
0
  10
4.494897136538
  20
2.031259691621
  30
0
  11
4.494897136538
  21
1.999999847938
  31
0
  0
LINE
  8
0
  10
4.463401103583
  20
2.031259691621
  30
0
  11
4.463401103583
  21
1.999999847938
  31
0
  0
LINE
  8
0
  6
DASHED
  10
4.256594500204
  20
2.031259686928
  30
0.71030669325
  11
4.256594494738
  21
1.999999843244
  31
0.71030669325
  0
LINE
  8
0
  6
DASHED
  10
4.207381896313
  20
1.999999852631
  30
0.71030669325
  11
4.207381901779
  21
2.031259696315
  31
0.71030669325
  0
LINE
  8
0
  6
DASHED
  10
4.207381901779
  20
2.031259695533
  30
0.71030669325
  11
4.256594500204
  21
2.031259686928
  31
0.71030669325
  0
LINE
  8
0
  6
DASHED
  10
4.256594500204
  20
1.999999843244
  30
0.71030669325
  11
4.207381901779
  21
1.999999851849
  31
0.71030669325
  0
LINE
  8
0
  10
4.263484233946
  20
1.999999846774
  30
0
  11
4.200492168036
  21
1.999999846774
  31
0
  0
LINE
  8
0
  10
4.200492168036
  20
1.999999846774
  30
0
  11
4.200492168036
  21
2.031259690457
  31
0
  0
LINE
  8
0
  10
4.200492168036
  20
2.031259691621
  30
0
  11
4.263484233946
  21
2.031259691621
  31
0
  0
LINE
  8
0
  10
4.263484233946
  20
2.031259691621
  30
0
  11
4.263484233946
  21
1.999999847938
  31
0
  0
LINE
  8
0
  10
4.231988200991
  20
2.031259691621
  30
0
  11
4.231988200991
  21
1.999999847938
  31
0
  0
LINE
  8
0
  6
DASHED
  10
4.032034836416
  20
2.031259686928
  30
0.634032872718
  11
4.032034830951
  21
1.999999843244
  31
0.634032872718
  0
LINE
  8
0
  6
DASHED
  10
3.982822232525
  20
1.999999852631
  30
0.634032872718
  11
3.982822237991
  21
2.031259696315
  31
0.634032872718
  0
LINE
  8
0
  6
DASHED
  10
3.982822237991
  20
2.031259695533
  30
0.634032872718
  11
4.032034836416
  21
2.031259686928
  31
0.634032872718
  0
LINE
  8
0
  6
DASHED
  10
4.032034836416
  20
1.999999843244
  30
0.634032872718
  11
3.982822237991
  21
1.999999851849
  31
0.634032872718
  0
LINE
  8
0
  10
4.038924419974
  20
1.999999846774
  30
0
  11
3.975932654433
  21
1.999999846774
  31
0
  0
LINE
  8
0
  10
3.975932654433
  20
1.999999846774
  30
0
  11
3.975932654433
  21
2.031259690457
  31
0
  0
LINE
  8
0
  10
3.975932654433
  20
2.031259691621
  30
0
  11
4.038924419974
  21
2.031259691621
  31
0
  0
LINE
  8
0
  10
4.038924419974
  20
2.031259691621
  30
0
  11
4.038924419974
  21
1.999999847938
  31
0
  0
LINE
  8
0
  10
4.007428537204
  20
2.031259691621
  30
0
  11
4.007428537204
  21
1.999999847938
  31
0
  0
LINE
  8
0
  6
DASHED
  10
3.95559461098
  20
2.031259686928
  30
0.3799135103
  11
3.955594605515
  21
1.999999843244
  31
0.3799135103
  0
LINE
  8
0
  6
DASHED
  10
3.906382007089
  20
1.999999852631
  30
0.3799135103
  11
3.906382012555
  21
2.031259696315
  31
0.3799135103
  0
LINE
  8
0
  6
DASHED
  10
3.906382012555
  20
2.031259695533
  30
0.3799135103
  11
3.95559461098
  21
2.031259686928
  31
0.3799135103
  0
LINE
  8
0
  6
DASHED
  10
3.95559461098
  20
1.999999843244
  30
0.3799135103
  11
3.906382012555
  21
1.999999851849
  31
0.3799135103
  0
LINE
  8
0
  10
3.962484194538
  20
1.999999846774
  30
0
  11
3.899492428997
  21
1.999999846774
  31
0
  0
LINE
  8
0
  10
3.899492428997
  20
1.999999846774
  30
0
  11
3.899492428997
  21
2.031259690457
  31
0
  0
LINE
  8
0
  10
3.899492428997
  20
2.031259691621
  30
0
  11
3.962484194538
  21
2.031259691621
  31
0
  0
LINE
  8
0
  10
3.962484194538
  20
2.031259691621
  30
0
  11
3.962484194538
  21
1.999999847938
  31
0
  0
LINE
  8
0
  10
3.930988311768
  20
2.031259691621
  30
0
  11
3.930988311768
  21
1.999999847938
  31
0
  0
LINE
  8
0
  6
DASHED
  10
4.003400276965
  20
2.031259686928
  30
0.113321139118
  11
4.003400271499
  21
1.999999843244
  31
0.113321139118
  0
LINE
  8
0
  6
DASHED
  10
3.954187673074
  20
1.999999852631
  30
0.113321139118
  11
3.95418767854
  21
2.031259696315
  31
0.113321139118
  0
LINE
  8
0
  6
DASHED
  10
3.95418767854
  20
2.031259695533
  30
0.113321139118
  11
4.003400276965
  21
2.031259686928
  31
0.113321139118
  0
LINE
  8
0
  6
DASHED
  10
4.003400276965
  20
1.999999843244
  30
0.113321139118
  11
3.95418767854
  21
1.999999851849
  31
0.113321139118
  0
LINE
  8
0
  10
4.010289860523
  20
1.999999846774
  30
0
  11
3.947298094982
  21
1.999999846774
  31
0
  0
LINE
  8
0
  10
3.947298094982
  20
1.999999846774
  30
0
  11
3.947298094982
  21
2.031259690457
  31
0
  0
LINE
  8
0
  10
3.947298094982
  20
2.031259691621
  30
0
  11
4.010289860523
  21
2.031259691621
  31
0
  0
LINE
  8
0
  10
4.010289860523
  20
2.031259691621
  30
0
  11
4.010289860523
  21
1.999999847938
  31
0
  0
LINE
  8
0
  10
3.978793977752
  20
2.031259691621
  30
0
  11
3.978793977752
  21
1.999999847938
  31
0
  0
LINE
  8
0
  6
DASHED
  10
4.557289213646
  20
2.031259686928
  30
0.379438325176
  11
4.55728920818
  21
1.999999843244
  31
0.379438325176
  0
LINE
  8
0
  6
DASHED
  10
4.508076609755
  20
1.999999852631
  30
0.379438325176
  11
4.508076615221
  21
2.031259696315
  31
0.379438325176
  0
LINE
  8
0
  6
DASHED
  10
4.508076615221
  20
2.031259695533
  30
0.379438325176
  11
4.557289213646
  21
2.031259686928
  31
0.379438325176
  0
LINE
  8
0
  6
DASHED
  10
4.557289208953
  20
1.999999843244
  30
0.379438325176
  11
4.508076610528
  21
1.999999851849
  31
0.379438325176
  0
LINE
  8
0
  10
4.564178947389
  20
1.999999846774
  30
0
  11
4.501186881478
  21
1.999999846774
  31
0
  0
LINE
  8
0
  10
4.501186881478
  20
1.999999846774
  30
0
  11
4.501186881478
  21
2.031259690457
  31
0
  0
LINE
  8
0
  10
4.501186881478
  20
2.031259691621
  30
0
  11
4.564178947389
  21
2.031259691621
  31
0
  0
LINE
  8
0
  10
4.564178947389
  20
2.031259691621
  30
0
  11
4.564178947389
  21
1.999999847938
  31
0
  0
LINE
  8
0
  10
4.532682914434
  20
2.031259691621
  30
0
  11
4.532682914434
  21
1.999999847938
  31
0
  0
LINE
  8
0
  6
DASHED
  10
4.502574289878
  20
2.031259686928
  30
0.113321139118
  11
4.502574284412
  21
1.999999843244
  31
0.113321139118
  0
LINE
  8
0
  6
DASHED
  10
4.453361685987
  20
1.999999852631
  30
0.113321139118
  11
4.453361691452
  21
2.031259696315
  31
0.113321139118
  0
LINE
  8
0
  6
DASHED
  10
4.453361691452
  20
2.031259695533
  30
0.113321139118
  11
4.502574289878
  21
2.031259686928
  31
0.113321139118
  0
LINE
  8
0
  6
DASHED
  10
4.502574289878
  20
1.999999843244
  30
0.113321139118
  11
4.453361691452
  21
1.999999851849
  31
0.113321139118
  0
LINE
  8
0
  10
4.50946402362
  20
1.999999846774
  30
0
  11
4.44647195771
  21
1.999999846774
  31
0
  0
LINE
  8
0
  10
4.44647195771
  20
1.999999846774
  30
0
  11
4.44647195771
  21
2.031259690457
  31
0
  0
LINE
  8
0
  10
4.44647195771
  20
2.031259691621
  30
0
  11
4.50946402362
  21
2.031259691621
  31
0
  0
LINE
  8
0
  10
4.50946402362
  20
2.031259691621
  30
0
  11
4.50946402362
  21
1.999999847938
  31
0
  0
LINE
  8
0
  10
4.477967990665
  20
2.031259691621
  30
0
  11
4.477967990665
  21
1.999999847938
  31
0
  0
TEXT
  8
0
  40
0.1
  72
0
  10
4.094188570038
  20
1.606299032377
  30
0
  1
Left
  50
0
  0
LINE
  8
0
  10
4.78316494799
  20
2.031259691621
  30
0.741976189801
  11
4.78316494799
  21
1.999999847938
  31
0.741976189801
  0
LINE
  8
0
  10
5.491826365313
  20
1.999999847938
  30
0.741976189801
  11
5.491826365313
  21
2.031259691621
  31
0.741976189801
  0
LINE
  8
0
  10
5.491826365313
  20
2.031259691621
  30
0.741976189801
  11
4.78316494799
  21
2.031259691621
  31
0.741976189801
  0
LINE
  8
0
  10
4.78316494799
  20
1.999999847938
  30
0.741976189801
  11
5.491826365313
  21
1.999999847938
  31
0.741976189801
  0
LINE
  8
0
  6
DASHED
  10
4.890302297637
  20
2.031259649382
  30
0.741976189801
  11
4.890302300391
  21
2.015511616478
  31
0.741976189801
  0
LINE
  8
0
  6
DASHED
  10
5.384985783845
  20
2.015511700957
  30
0.741976189801
  11
5.384985781091
  21
2.031259733861
  31
0.741976189801
  0
LINE
  8
0
  6
DASHED
  10
5.384985781091
  20
2.031259735875
  30
0.741976189801
  11
4.890302297637
  21
2.031259649382
  31
0.741976189801
  0
LINE
  8
0
  6
DASHED
  10
4.890302297637
  20
2.015511615304
  30
0.741976189801
  11
5.384985781091
  21
2.015511701798
  31
0.741976189801
  0
LINE
  8
0
  10
4.95145812748
  20
2.031259691621
  30
0.552430791179
  11
4.95145812748
  21
2.015511659891
  31
0.552430791179
  0
LINE
  8
0
  10
5.323505401611
  20
2.015511659891
  30
0.552430791179
  11
5.323505401611
  21
2.031259691621
  31
0.552430791179
  0
LINE
  8
0
  10
5.323505401611
  20
2.031259691621
  30
0.552430791179
  11
4.95145812748
  21
2.031259691621
  31
0.552430791179
  0
LINE
  8
0
  10
4.95145812748
  20
2.015511658717
  30
0.552430791179
  11
5.323505401611
  21
2.015511658717
  31
0.552430791179
  0
LINE
  8
0
  10
5.137481764546
  20
2.031259691621
  30
0
  11
5.137481764546
  21
2.015511658717
  31
0
  0
LINE
  8
0
  6
DASHED
  10
4.971143241942
  20
2.031259663462
  30
0.532745751809
  11
4.971143247408
  21
1.999999819778
  31
0.532745751809
  0
LINE
  8
0
  6
DASHED
  10
5.303820442799
  20
1.999999876097
  30
0.532745751809
  11
5.303820437334
  21
2.031259719781
  31
0.532745751809
  0
LINE
  8
0
  6
DASHED
  10
5.303820437334
  20
2.031259721629
  30
0.532745751809
  11
4.971143241942
  21
2.031259663462
  31
0.532745751809
  0
LINE
  8
0
  6
DASHED
  10
4.971143241942
  20
1.999999819778
  30
0.532745751809
  11
5.303820437334
  21
1.999999877945
  31
0.532745751809
  0
LINE
  8
0
  10
5.137481839638
  20
2.031259691621
  30
0
  11
5.137481839638
  21
1.999999847938
  31
0
  0
LINE
  8
0
  6
DASHED
  10
5.102048558513
  20
2.015511652851
  30
0.702509692335
  11
5.102048561225
  21
1.999999842071
  31
0.702509692335
  0
LINE
  8
0
  6
DASHED
  10
5.172914823105
  20
1.999999853804
  30
0.702509692335
  11
5.172914820393
  21
2.015511664584
  31
0.702509692335
  0
LINE
  8
0
  6
DASHED
  10
5.172914820393
  20
2.015511665241
  30
0.702509692335
  11
5.102048558513
  21
2.015511652851
  31
0.702509692335
  0
LINE
  8
0
  6
DASHED
  10
5.102048558513
  20
1.999999842071
  30
0.702509692335
  11
5.172914820393
  21
1.999999854462
  31
0.702509692335
  0
LINE
  8
0
  10
5.137481689453
  20
2.015511658717
  30
0
  11
5.137481689453
  21
1.999999847938
  31
0
  0
LINE
  8
0
  6
DASHED
  10
4.881472099484
  20
2.031259686928
  30
0.163340080441
  11
4.88147210495
  21
1.999999843244
  31
0.163340080441
  0
LINE
  8
0
  6
DASHED
  10
4.930684703375
  20
1.999999852631
  30
0.163340080441
  11
4.93068469791
  21
2.031259696315
  31
0.163340080441
  0
LINE
  8
0
  6
DASHED
  10
4.93068469791
  20
2.031259695533
  30
0.163340080441
  11
4.881472099484
  21
2.031259686928
  31
0.163340080441
  0
LINE
  8
0
  6
DASHED
  10
4.881472099484
  20
1.999999843244
  30
0.163340080441
  11
4.93068469791
  21
1.999999851849
  31
0.163340080441
  0
LINE
  8
0
  10
4.874582365742
  20
1.999999846774
  30
0
  11
4.937574431652
  21
1.999999846774
  31
0
  0
LINE
  8
0
  10
4.937574431652
  20
1.999999846774
  30
0
  11
4.937574431652
  21
2.031259690457
  31
0
  0
LINE
  8
0
  10
4.937574431652
  20
2.031259691621
  30
0
  11
4.874582365742
  21
2.031259691621
  31
0
  0
LINE
  8
0
  10
4.874582365742
  20
2.031259691621
  30
0
  11
4.874582365742
  21
1.999999847938
  31
0
  0
LINE
  8
0
  10
4.906078398697
  20
2.031259691621
  30
0
  11
4.906078398697
  21
1.999999847938
  31
0
  0
LINE
  8
0
  6
DASHED
  10
5.112885002076
  20
2.031259686928
  30
0.080882094976
  11
5.112885007542
  21
1.999999843244
  31
0.080882094976
  0
LINE
  8
0
  6
DASHED
  10
5.162097605967
  20
1.999999852631
  30
0.080882094976
  11
5.162097600501
  21
2.031259696315
  31
0.080882094976
  0
LINE
  8
0
  6
DASHED
  10
5.162097600501
  20
2.031259695533
  30
0.080882094976
  11
5.112885002076
  21
2.031259686928
  31
0.080882094976
  0
LINE
  8
0
  6
DASHED
  10
5.112885002076
  20
1.999999843244
  30
0.080882094976
  11
5.162097600501
  21
1.999999851849
  31
0.080882094976
  0
LINE
  8
0
  10
5.105995268334
  20
1.999999846774
  30
0
  11
5.168987334244
  21
1.999999846774
  31
0
  0
LINE
  8
0
  10
5.168987334244
  20
1.999999846774
  30
0
  11
5.168987334244
  21
2.031259690457
  31
0
  0
LINE
  8
0
  10
5.168987334244
  20
2.031259691621
  30
0
  11
5.105995268334
  21
2.031259691621
  31
0
  0
LINE
  8
0
  10
5.105995268334
  20
2.031259691621
  30
0
  11
5.105995268334
  21
1.999999847938
  31
0
  0
LINE
  8
0
  10
5.137491301289
  20
2.031259691621
  30
0
  11
5.137491301289
  21
1.999999847938
  31
0
  0
LINE
  8
0
  6
DASHED
  10
5.337444665864
  20
2.031259686928
  30
0.157155915508
  11
5.337444671329
  21
1.999999843244
  31
0.157155915508
  0
LINE
  8
0
  6
DASHED
  10
5.386657269755
  20
1.999999852631
  30
0.157155915508
  11
5.386657264289
  21
2.031259696315
  31
0.157155915508
  0
LINE
  8
0
  6
DASHED
  10
5.386657264289
  20
2.031259695533
  30
0.157155915508
  11
5.337444665864
  21
2.031259686928
  31
0.157155915508
  0
LINE
  8
0
  6
DASHED
  10
5.337444665864
  20
1.999999843244
  30
0.157155915508
  11
5.386657264289
  21
1.999999851849
  31
0.157155915508
  0
LINE
  8
0
  10
5.330555082306
  20
1.999999846774
  30
0
  11
5.393546847847
  21
1.999999846774
  31
0
  0
LINE
  8
0
  10
5.393546847847
  20
1.999999846774
  30
0
  11
5.393546847847
  21
2.031259690457
  31
0
  0
LINE
  8
0
  10
5.393546847847
  20
2.031259691621
  30
0
  11
5.330555082306
  21
2.031259691621
  31
0
  0
LINE
  8
0
  10
5.330555082306
  20
2.031259691621
  30
0
  11
5.330555082306
  21
1.999999847938
  31
0
  0
LINE
  8
0
  10
5.362050965076
  20
2.031259691621
  30
0
  11
5.362050965076
  21
1.999999847938
  31
0
  0
LINE
  8
0
  6
DASHED
  10
5.4138848913
  20
2.031259686928
  30
0.411275277926
  11
5.413884896765
  21
1.999999843244
  31
0.411275277926
  0
LINE
  8
0
  6
DASHED
  10
5.463097495191
  20
1.999999852631
  30
0.411275277926
  11
5.463097489725
  21
2.031259696315
  31
0.411275277926
  0
LINE
  8
0
  6
DASHED
  10
5.463097489725
  20
2.031259695533
  30
0.411275277926
  11
5.4138848913
  21
2.031259686928
  31
0.411275277926
  0
LINE
  8
0
  6
DASHED
  10
5.4138848913
  20
1.999999843244
  30
0.411275277926
  11
5.463097489725
  21
1.999999851849
  31
0.411275277926
  0
LINE
  8
0
  10
5.406995307742
  20
1.999999846774
  30
0
  11
5.469987073283
  21
1.999999846774
  31
0
  0
LINE
  8
0
  10
5.469987073283
  20
1.999999846774
  30
0
  11
5.469987073283
  21
2.031259690457
  31
0
  0
LINE
  8
0
  10
5.469987073283
  20
2.031259691621
  30
0
  11
5.406995307742
  21
2.031259691621
  31
0
  0
LINE
  8
0
  10
5.406995307742
  20
2.031259691621
  30
0
  11
5.406995307742
  21
1.999999847938
  31
0
  0
LINE
  8
0
  10
5.438491190512
  20
2.031259691621
  30
0
  11
5.438491190512
  21
1.999999847938
  31
0
  0
LINE
  8
0
  6
DASHED
  10
5.366079225315
  20
2.031259686928
  30
0.677867649108
  11
5.366079230781
  21
1.999999843244
  31
0.677867649108
  0
LINE
  8
0
  6
DASHED
  10
5.415291829206
  20
1.999999852631
  30
0.677867649108
  11
5.41529182374
  21
2.031259696315
  31
0.677867649108
  0
LINE
  8
0
  6
DASHED
  10
5.41529182374
  20
2.031259695533
  30
0.677867649108
  11
5.366079225315
  21
2.031259686928
  31
0.677867649108
  0
LINE
  8
0
  6
DASHED
  10
5.366079225315
  20
1.999999843244
  30
0.677867649108
  11
5.41529182374
  21
1.999999851849
  31
0.677867649108
  0
LINE
  8
0
  10
5.359189641757
  20
1.999999846774
  30
0
  11
5.422181407298
  21
1.999999846774
  31
0
  0
LINE
  8
0
  10
5.422181407298
  20
1.999999846774
  30
0
  11
5.422181407298
  21
2.031259690457
  31
0
  0
LINE
  8
0
  10
5.422181407298
  20
2.031259691621
  30
0
  11
5.359189641757
  21
2.031259691621
  31
0
  0
LINE
  8
0
  10
5.359189641757
  20
2.031259691621
  30
0
  11
5.359189641757
  21
1.999999847938
  31
0
  0
LINE
  8
0
  10
5.390685524527
  20
2.031259691621
  30
0
  11
5.390685524527
  21
1.999999847938
  31
0
  0
LINE
  8
0
  6
DASHED
  10
4.812190288634
  20
2.031259686928
  30
0.41175046305
  11
4.812190294099
  21
1.999999843244
  31
0.41175046305
  0
LINE
  8
0
  6
DASHED
  10
4.861402892525
  20
1.999999852631
  30
0.41175046305
  11
4.861402887059
  21
2.031259696315
  31
0.41175046305
  0
LINE
  8
0
  6
DASHED
  10
4.861402887059
  20
2.031259695533
  30
0.41175046305
  11
4.812190288634
  21
2.031259686928
  31
0.41175046305
  0
LINE
  8
0
  6
DASHED
  10
4.812190293327
  20
1.999999843244
  30
0.41175046305
  11
4.861402891752
  21
1.999999851849
  31
0.41175046305
  0
LINE
  8
0
  10
4.805300554891
  20
1.999999846774
  30
0
  11
4.868292620802
  21
1.999999846774
  31
0
  0
LINE
  8
0
  10
4.868292620802
  20
1.999999846774
  30
0
  11
4.868292620802
  21
2.031259690457
  31
0
  0
LINE
  8
0
  10
4.868292620802
  20
2.031259691621
  30
0
  11
4.805300554891
  21
2.031259691621
  31
0
  0
LINE
  8
0
  10
4.805300554891
  20
2.031259691621
  30
0
  11
4.805300554891
  21
1.999999847938
  31
0
  0
LINE
  8
0
  10
4.836796587846
  20
2.031259691621
  30
0
  11
4.836796587846
  21
1.999999847938
  31
0
  0
LINE
  8
0
  6
DASHED
  10
4.866905212402
  20
2.031259686928
  30
0.677867649108
  11
4.866905217868
  21
1.999999843244
  31
0.677867649108
  0
LINE
  8
0
  6
DASHED
  10
4.916117816293
  20
1.999999852631
  30
0.677867649108
  11
4.916117810828
  21
2.031259696315
  31
0.677867649108
  0
LINE
  8
0
  6
DASHED
  10
4.916117810828
  20
2.031259695533
  30
0.677867649108
  11
4.866905212402
  21
2.031259686928
  31
0.677867649108
  0
LINE
  8
0
  6
DASHED
  10
4.866905212402
  20
1.999999843244
  30
0.677867649108
  11
4.916117810828
  21
1.999999851849
  31
0.677867649108
  0
LINE
  8
0
  10
4.86001547866
  20
1.999999846774
  30
0
  11
4.92300754457
  21
1.999999846774
  31
0
  0
LINE
  8
0
  10
4.92300754457
  20
1.999999846774
  30
0
  11
4.92300754457
  21
2.031259690457
  31
0
  0
LINE
  8
0
  10
4.92300754457
  20
2.031259691621
  30
0
  11
4.86001547866
  21
2.031259691621
  31
0
  0
LINE
  8
0
  10
4.86001547866
  20
2.031259691621
  30
0
  11
4.86001547866
  21
1.999999847938
  31
0
  0
LINE
  8
0
  10
4.891511511615
  20
2.031259691621
  30
0
  11
4.891511511615
  21
1.999999847938
  31
0
  0
TEXT
  8
0
  40
0.1
  72
0
  10
4.999700381061
  20
1.606299032377
  30
0
  1
Right
  50
0
  0
LINE
  8
0
  10
5.688676759014
  20
2.031259691621
  30
0.708661417323
  11
5.688676759014
  21
1.999999847938
  31
0.708661417323
  0
LINE
  8
0
  10
6.430652948815
  20
1.999999847938
  30
0.708661417323
  11
6.430652948815
  21
2.031259691621
  31
0.708661417323
  0
LINE
  8
0
  10
6.430652948815
  20
2.031259691621
  30
0.708661417323
  11
5.688676759014
  21
2.031259691621
  31
0.708661417323
  0
LINE
  8
0
  10
5.688676759014
  20
1.999999847938
  30
0.708661417323
  11
6.430652948815
  21
1.999999847938
  31
0.708661417323
  0
LINE
  8
0
  6
DASHED
  10
5.801228200357
  20
2.031259637649
  30
0.601524142768
  11
5.80122820311
  21
2.015511604745
  31
0.601524142768
  0
LINE
  8
0
  6
DASHED
  10
6.430652951569
  20
2.01551171269
  30
0.601524142768
  11
6.430652948815
  21
2.031259745594
  31
0.601524142768
  0
LINE
  8
0
  6
DASHED
  10
6.430652948815
  20
2.031259747701
  30
0.601524142768
  11
5.801228200357
  21
2.031259637649
  31
0.601524142768
  0
LINE
  8
0
  6
DASHED
  10
5.801228200357
  20
2.015511603571
  30
0.601524142768
  11
6.430652948815
  21
2.015511713623
  31
0.601524142768
  0
LINE
  8
0
  10
5.869060426246
  20
2.031259691621
  30
0.540368237833
  11
5.869060426246
  21
2.015511659891
  31
0.540368237833
  0
LINE
  8
0
  10
6.241107550193
  20
2.015511659891
  30
0.540368237833
  11
6.241107550193
  21
2.031259691621
  31
0.540368237833
  0
LINE
  8
0
  10
6.241107550193
  20
2.031259691621
  30
0.540368237833
  11
5.869060426246
  21
2.031259691621
  31
0.540368237833
  0
LINE
  8
0
  10
5.869060426246
  20
2.015511658717
  30
0.540368237833
  11
6.241107550193
  21
2.015511658717
  31
0.540368237833
  0
LINE
  8
0
  10
6.05508398822
  20
2.031259691621
  30
0
  11
6.05508398822
  21
2.015511658717
  31
0
  0
LINE
  8
0
  6
DASHED
  10
5.888745465617
  20
2.031259663462
  30
0.520683198463
  11
5.888745471082
  21
1.999999819778
  31
0.520683198463
  0
LINE
  8
0
  6
DASHED
  10
6.221422516289
  20
1.999999876097
  30
0.520683198463
  11
6.221422510823
  21
2.031259719781
  31
0.520683198463
  0
LINE
  8
0
  6
DASHED
  10
6.221422510823
  20
2.031259721629
  30
0.520683198463
  11
5.888745465617
  21
2.031259663462
  31
0.520683198463
  0
LINE
  8
0
  6
DASHED
  10
5.888745465617
  20
1.999999819778
  30
0.520683198463
  11
6.221422510823
  21
1.999999877945
  31
0.520683198463
  0
LINE
  8
0
  10
6.05508398822
  20
2.031259691621
  30
0
  11
6.05508398822
  21
1.999999847938
  31
0
  0
LINE
  8
0
  6
DASHED
  10
6.320320189469
  20
2.015511652851
  30
0.3897778068
  11
6.320320192181
  21
1.999999842071
  31
0.3897778068
  0
LINE
  8
0
  6
DASHED
  10
6.391186454061
  20
1.999999853804
  30
0.3897778068
  11
6.391186451349
  21
2.015511664584
  31
0.3897778068
  0
LINE
  8
0
  6
DASHED
  10
6.391186451349
  20
2.015511665241
  30
0.3897778068
  11
6.320320189469
  21
2.015511652851
  31
0.3897778068
  0
LINE
  8
0
  6
DASHED
  10
6.320320189469
  20
1.999999842071
  30
0.3897778068
  11
6.391186451349
  21
1.999999854462
  31
0.3897778068
  0
LINE
  8
0
  10
6.355753320409
  20
2.015511658717
  30
0
  11
6.355753320409
  21
1.999999847938
  31
0
  0
LINE
  8
0
  6
DASHED
  10
5.80280424103
  20
2.031259686928
  30
0.610354265829
  11
5.802804246496
  21
1.999999843244
  31
0.610354265829
  0
LINE
  8
0
  6
DASHED
  10
5.852016844921
  20
1.999999852631
  30
0.610354265829
  11
5.852016839455
  21
2.031259696315
  31
0.610354265829
  0
LINE
  8
0
  6
DASHED
  10
5.852016839455
  20
2.031259695533
  30
0.610354265829
  11
5.80280424103
  21
2.031259686928
  31
0.610354265829
  0
LINE
  8
0
  6
DASHED
  10
5.80280424103
  20
1.999999843244
  30
0.610354265829
  11
5.852016839455
  21
1.999999851849
  31
0.610354265829
  0
LINE
  8
0
  10
5.795914507288
  20
1.999999846774
  30
0
  11
5.858906573198
  21
1.999999846774
  31
0
  0
LINE
  8
0
  10
5.858906573198
  20
1.999999846774
  30
0
  11
5.858906573198
  21
2.031259690457
  31
0
  0
LINE
  8
0
  10
5.858906573198
  20
2.031259691621
  30
0
  11
5.795914507288
  21
2.031259691621
  31
0
  0
LINE
  8
0
  10
5.795914507288
  20
2.031259691621
  30
0
  11
5.795914507288
  21
1.999999847938
  31
0
  0
LINE
  8
0
  10
5.827410540243
  20
2.031259691621
  30
0
  11
5.827410540243
  21
1.999999847938
  31
0
  0
LINE
  8
0
  6
DASHED
  10
5.720346255565
  20
2.031259686928
  30
0.378941363237
  11
5.720346261031
  21
1.999999843244
  31
0.378941363237
  0
LINE
  8
0
  6
DASHED
  10
5.769558859456
  20
1.999999852631
  30
0.378941363237
  11
5.76955885399
  21
2.031259696315
  31
0.378941363237
  0
LINE
  8
0
  6
DASHED
  10
5.76955885399
  20
2.031259695533
  30
0.378941363237
  11
5.720346255565
  21
2.031259686928
  31
0.378941363237
  0
LINE
  8
0
  6
DASHED
  10
5.720346260259
  20
1.999999843244
  30
0.378941363237
  11
5.769558858684
  21
1.999999851849
  31
0.378941363237
  0
LINE
  8
0
  10
5.713456521823
  20
1.999999846774
  30
0
  11
5.776448587733
  21
1.999999846774
  31
0
  0
LINE
  8
0
  10
5.776448587733
  20
1.999999846774
  30
0
  11
5.776448587733
  21
2.031259690457
  31
0
  0
LINE
  8
0
  10
5.776448587733
  20
2.031259691621
  30
0
  11
5.713456521823
  21
2.031259691621
  31
0
  0
LINE
  8
0
  10
5.713456521823
  20
2.031259691621
  30
0
  11
5.713456521823
  21
1.999999847938
  31
0
  0
LINE
  8
0
  10
5.744952554778
  20
2.031259691621
  30
0
  11
5.744952554778
  21
1.999999847938
  31
0
  0
LINE
  8
0
  6
DASHED
  10
5.796620076097
  20
2.031259686928
  30
0.154381699449
  11
5.796620081563
  21
1.999999843244
  31
0.154381699449
  0
LINE
  8
0
  6
DASHED
  10
5.845832679988
  20
1.999999852631
  30
0.154381699449
  11
5.845832674522
  21
2.031259696315
  31
0.154381699449
  0
LINE
  8
0
  6
DASHED
  10
5.845832674522
  20
2.031259695533
  30
0.154381699449
  11
5.796620076097
  21
2.031259686928
  31
0.154381699449
  0
LINE
  8
0
  6
DASHED
  10
5.796620076097
  20
1.999999843244
  30
0.154381699449
  11
5.845832674522
  21
1.999999851849
  31
0.154381699449
  0
LINE
  8
0
  10
5.789730342354
  20
1.999999846774
  30
0
  11
5.852722408265
  21
1.999999846774
  31
0
  0
LINE
  8
0
  10
5.852722408265
  20
1.999999846774
  30
0
  11
5.852722408265
  21
2.031259690457
  31
0
  0
LINE
  8
0
  10
5.852722408265
  20
2.031259691621
  30
0
  11
5.789730342354
  21
2.031259691621
  31
0
  0
LINE
  8
0
  10
5.789730342354
  20
2.031259691621
  30
0
  11
5.789730342354
  21
1.999999847938
  31
0
  0
LINE
  8
0
  10
5.82122637531
  20
2.031259691621
  30
0
  11
5.82122637531
  21
1.999999847938
  31
0
  0
LINE
  8
0
  6
DASHED
  10
6.050739438515
  20
2.031259686928
  30
0.077941474013
  11
6.050739443981
  21
1.999999843244
  31
0.077941474013
  0
LINE
  8
0
  6
DASHED
  10
6.099952042406
  20
1.999999852631
  30
0.077941474013
  11
6.09995203694
  21
2.031259696315
  31
0.077941474013
  0
LINE
  8
0
  6
DASHED
  10
6.09995203694
  20
2.031259695533
  30
0.077941474013
  11
6.050739438515
  21
2.031259686928
  31
0.077941474013
  0
LINE
  8
0
  6
DASHED
  10
6.050739438515
  20
1.999999843244
  30
0.077941474013
  11
6.09995203694
  21
1.999999851849
  31
0.077941474013
  0
LINE
  8
0
  10
6.043849704772
  20
1.999999846774
  30
0
  11
6.106841770683
  21
1.999999846774
  31
0
  0
LINE
  8
0
  10
6.106841770683
  20
1.999999846774
  30
0
  11
6.106841770683
  21
2.031259690457
  31
0
  0
LINE
  8
0
  10
6.106841770683
  20
2.031259691621
  30
0
  11
6.043849704772
  21
2.031259691621
  31
0
  0
LINE
  8
0
  10
6.043849704772
  20
2.031259691621
  30
0
  11
6.043849704772
  21
1.999999847938
  31
0
  0
LINE
  8
0
  10
6.075345737728
  20
2.031259691621
  30
0
  11
6.075345737728
  21
1.999999847938
  31
0
  0
LINE
  8
0
  6
DASHED
  10
6.317331809697
  20
2.031259686928
  30
0.125747139998
  11
6.317331815163
  21
1.999999843244
  31
0.125747139998
  0
LINE
  8
0
  6
DASHED
  10
6.366544413588
  20
1.999999852631
  30
0.125747139998
  11
6.366544408122
  21
2.031259696315
  31
0.125747139998
  0
LINE
  8
0
  6
DASHED
  10
6.366544408122
  20
2.031259695533
  30
0.125747139998
  11
6.317331809697
  21
2.031259686928
  31
0.125747139998
  0
LINE
  8
0
  6
DASHED
  10
6.317331809697
  20
1.999999843244
  30
0.125747139998
  11
6.366544408122
  21
1.999999851849
  31
0.125747139998
  0
LINE
  8
0
  10
6.31044222614
  20
1.999999846774
  30
0
  11
6.37343399168
  21
1.999999846774
  31
0
  0
LINE
  8
0
  10
6.37343399168
  20
1.999999846774
  30
0
  11
6.37343399168
  21
2.031259690457
  31
0
  0
LINE
  8
0
  10
6.37343399168
  20
2.031259691621
  30
0
  11
6.31044222614
  21
2.031259691621
  31
0
  0
LINE
  8
0
  10
6.31044222614
  20
2.031259691621
  30
0
  11
6.31044222614
  21
1.999999847938
  31
0
  0
LINE
  8
0
  10
6.34193810891
  20
2.031259691621
  30
0
  11
6.34193810891
  21
1.999999847938
  31
0
  0
LINE
  8
0
  6
DASHED
  10
6.051214623639
  20
2.031259686928
  30
0.679636076679
  11
6.051214629105
  21
1.999999843244
  31
0.679636076679
  0
LINE
  8
0
  6
DASHED
  10
6.10042722753
  20
1.999999852631
  30
0.679636076679
  11
6.100427222064
  21
2.031259696315
  31
0.679636076679
  0
LINE
  8
0
  6
DASHED
  10
6.100427222064
  20
2.031259695533
  30
0.679636076679
  11
6.051214623639
  21
2.031259686928
  31
0.679636076679
  0
LINE
  8
0
  6
DASHED
  10
6.051214623639
  20
1.999999843244
  30
0.679636076679
  11
6.100427222064
  21
1.999999851849
  31
0.679636076679
  0
LINE
  8
0
  10
6.044324889896
  20
1.999999846774
  30
0
  11
6.107316955807
  21
1.999999846774
  31
0
  0
LINE
  8
0
  10
6.107316955807
  20
1.999999846774
  30
0
  11
6.107316955807
  21
2.031259690457
  31
0
  0
LINE
  8
0
  10
6.107316955807
  20
2.031259691621
  30
0
  11
6.044324889896
  21
2.031259691621
  31
0
  0
LINE
  8
0
  10
6.044324889896
  20
2.031259691621
  30
0
  11
6.044324889896
  21
1.999999847938
  31
0
  0
LINE
  8
0
  10
6.075820922852
  20
2.031259691621
  30
0
  11
6.075820922852
  21
1.999999847938
  31
0
  0
LINE
  8
0
  6
DASHED
  10
6.317331809697
  20
2.031259686928
  30
0.624921152911
  11
6.317331815163
  21
1.999999843244
  31
0.624921152911
  0
LINE
  8
0
  6
DASHED
  10
6.366544413588
  20
1.999999852631
  30
0.624921152911
  11
6.366544408122
  21
2.031259696315
  31
0.624921152911
  0
LINE
  8
0
  6
DASHED
  10
6.366544408122
  20
2.031259695533
  30
0.624921152911
  11
6.317331809697
  21
2.031259686928
  31
0.624921152911
  0
LINE
  8
0
  6
DASHED
  10
6.317331809697
  20
1.999999843244
  30
0.624921152911
  11
6.366544408122
  21
1.999999851849
  31
0.624921152911
  0
LINE
  8
0
  10
6.31044222614
  20
1.999999846774
  30
0
  11
6.37343399168
  21
1.999999846774
  31
0
  0
LINE
  8
0
  10
6.37343399168
  20
1.999999846774
  30
0
  11
6.37343399168
  21
2.031259690457
  31
0
  0
LINE
  8
0
  10
6.37343399168
  20
2.031259691621
  30
0
  11
6.31044222614
  21
2.031259691621
  31
0
  0
LINE
  8
0
  10
6.31044222614
  20
2.031259691621
  30
0
  11
6.31044222614
  21
1.999999847938
  31
0
  0
LINE
  8
0
  10
6.34193810891
  20
2.031259691621
  30
0
  11
6.34193810891
  21
1.999999847938
  31
0
  0
TEXT
  8
0
  40
0.1
  72
0
  10
5.921869578324
  20
1.606299032377
  30
0
  1
Front
  50
0
  0
LINE
  8
0
  10
6.627503342516
  20
1.999999876097
  30
0.708661417323
  11
6.627503342516
  21
2.031259719781
  31
0.708661417323
  0
LINE
  8
0
  10
7.369479532317
  20
2.031259719781
  30
0.708661417323
  11
7.369479532317
  21
1.999999876097
  31
0.708661417323
  0
LINE
  8
0
  10
7.369479532317
  20
1.999999876097
  30
0.708661417323
  11
6.627503342516
  21
1.999999876097
  31
0.708661417323
  0
LINE
  8
0
  10
6.627503342516
  20
2.031259719781
  30
0.708661417323
  11
7.369479532317
  21
2.031259719781
  31
0.708661417323
  0
LINE
  8
0
  6
DASHED
  10
6.740054783859
  20
1.99999993007
  30
0.601820758009
  11
6.740054786612
  21
2.015747962974
  31
0.601820758009
  0
LINE
  8
0
  6
DASHED
  10
7.36947953507
  20
2.015747855029
  30
0.601820758009
  11
7.369479532317
  21
1.999999822125
  31
0.601820758009
  0
LINE
  8
0
  6
DASHED
  10
7.369479532317
  20
1.999999820018
  30
0.601820758009
  11
6.740054783859
  21
1.99999993007
  31
0.601820758009
  0
LINE
  8
0
  6
DASHED
  10
6.740054783859
  20
2.015747964148
  30
0.601820758009
  11
7.369479532317
  21
2.015747854095
  31
0.601820758009
  0
LINE
  8
0
  10
6.807887009748
  20
1.999999876097
  30
0.540340453621
  11
6.807887009748
  21
2.015747907828
  31
0.540340453621
  0
LINE
  8
0
  10
7.179934133695
  20
2.015747907828
  30
0.540340453621
  11
7.179934133695
  21
1.999999876097
  31
0.540340453621
  0
LINE
  8
0
  10
7.179934133695
  20
1.999999876097
  30
0.540340453621
  11
6.807887009748
  21
1.999999876097
  31
0.540340453621
  0
LINE
  8
0
  10
6.807887009748
  20
2.015747909001
  30
0.540340453621
  11
7.179934133695
  21
2.015747909001
  31
0.540340453621
  0
LINE
  8
0
  10
6.993910571722
  20
1.999999876097
  30
0
  11
6.993910571722
  21
2.015747909001
  31
0
  0
LINE
  8
0
  6
DASHED
  10
6.827572049118
  20
1.999999904257
  30
0.520655414251
  11
6.827572054584
  21
2.031259747941
  31
0.520655414251
  0
LINE
  8
0
  6
DASHED
  10
7.16024909979
  20
2.031259691621
  30
0.520655414251
  11
7.160249094325
  21
1.999999847938
  31
0.520655414251
  0
LINE
  8
0
  6
DASHED
  10
7.160249094325
  20
1.99999984609
  30
0.520655414251
  11
6.827572049118
  21
1.999999904257
  31
0.520655414251
  0
LINE
  8
0
  6
DASHED
  10
6.827572049118
  20
2.031259747941
  30
0.520655414251
  11
7.160249094325
  21
2.031259689774
  31
0.520655414251
  0
LINE
  8
0
  10
6.993910571722
  20
1.999999876097
  30
0
  11
6.993910571722
  21
2.031259719781
  31
0
  0
LINE
  8
0
  6
DASHED
  10
7.25914677297
  20
2.015747914868
  30
0.389749872403
  11
7.259146775683
  21
2.031259725648
  31
0.389749872403
  0
LINE
  8
0
  6
DASHED
  10
7.330013037563
  20
2.031259713914
  30
0.389749872403
  11
7.330013034851
  21
2.015747903135
  31
0.389749872403
  0
LINE
  8
0
  6
DASHED
  10
7.330013034851
  20
2.015747902477
  30
0.389749872403
  11
7.25914677297
  21
2.015747914868
  31
0.389749872403
  0
LINE
  8
0
  6
DASHED
  10
7.25914677297
  20
2.031259725648
  30
0.389749872403
  11
7.330013034851
  21
2.031259713257
  31
0.389749872403
  0
LINE
  8
0
  10
7.29457990391
  20
2.015747909001
  30
0
  11
7.29457990391
  21
2.031259719781
  31
0
  0
LINE
  8
0
  6
DASHED
  10
6.741630824532
  20
1.999999880791
  30
0.147519749919
  11
6.741630829998
  21
2.031259724474
  31
0.147519749919
  0
LINE
  8
0
  6
DASHED
  10
6.790843428423
  20
2.031259715088
  30
0.147519749919
  11
6.790843422957
  21
1.999999871404
  31
0.147519749919
  0
LINE
  8
0
  6
DASHED
  10
6.790843422957
  20
1.999999872186
  30
0.147519749919
  11
6.741630824532
  21
1.999999880791
  31
0.147519749919
  0
LINE
  8
0
  6
DASHED
  10
6.741630824532
  20
2.031259724474
  30
0.147519749919
  11
6.790843422957
  21
2.03125971587
  31
0.147519749919
  0
LINE
  8
0
  10
6.73474109079
  20
2.031259720945
  30
0
  11
6.7977331567
  21
2.031259720945
  31
0
  0
LINE
  8
0
  10
6.7977331567
  20
2.031259720945
  30
0
  11
6.7977331567
  21
1.999999877261
  31
0
  0
LINE
  8
0
  10
6.7977331567
  20
1.999999876097
  30
0
  11
6.73474109079
  21
1.999999876097
  31
0
  0
LINE
  8
0
  10
6.73474109079
  20
1.999999876097
  30
0
  11
6.73474109079
  21
2.031259719781
  31
0
  0
LINE
  8
0
  10
6.766237123745
  20
1.999999876097
  30
0
  11
6.766237123745
  21
2.031259719781
  31
0
  0
LINE
  8
0
  6
DASHED
  10
6.659172839067
  20
1.999999880791
  30
0.378932652511
  11
6.659172844533
  21
2.031259724474
  31
0.378932652511
  0
LINE
  8
0
  6
DASHED
  10
6.708385442958
  20
2.031259715088
  30
0.378932652511
  11
6.708385437492
  21
1.999999871404
  31
0.378932652511
  0
LINE
  8
0
  6
DASHED
  10
6.708385437492
  20
1.999999872186
  30
0.378932652511
  11
6.659172839067
  21
1.999999880791
  31
0.378932652511
  0
LINE
  8
0
  6
DASHED
  10
6.65917284376
  20
2.031259724474
  30
0.378932652511
  11
6.708385442186
  21
2.03125971587
  31
0.378932652511
  0
LINE
  8
0
  10
6.652283105325
  20
2.031259720945
  30
0
  11
6.715275171235
  21
2.031259720945
  31
0
  0
LINE
  8
0
  10
6.715275171235
  20
2.031259720945
  30
0
  11
6.715275171235
  21
1.999999877261
  31
0
  0
LINE
  8
0
  10
6.715275171235
  20
1.999999876097
  30
0
  11
6.652283105325
  21
1.999999876097
  31
0
  0
LINE
  8
0
  10
6.652283105325
  20
1.999999876097
  30
0
  11
6.652283105325
  21
2.031259719781
  31
0
  0
LINE
  8
0
  10
6.68377913828
  20
1.999999876097
  30
0
  11
6.68377913828
  21
2.031259719781
  31
0
  0
LINE
  8
0
  6
DASHED
  10
6.735446659599
  20
1.999999880791
  30
0.603492316299
  11
6.735446665064
  21
2.031259724474
  31
0.603492316299
  0
LINE
  8
0
  6
DASHED
  10
6.78465926349
  20
2.031259715088
  30
0.603492316299
  11
6.784659258024
  21
1.999999871404
  31
0.603492316299
  0
LINE
  8
0
  6
DASHED
  10
6.784659258024
  20
1.999999872186
  30
0.603492316299
  11
6.735446659599
  21
1.999999880791
  31
0.603492316299
  0
LINE
  8
0
  6
DASHED
  10
6.735446659599
  20
2.031259724474
  30
0.603492316299
  11
6.784659258024
  21
2.03125971587
  31
0.603492316299
  0
LINE
  8
0
  10
6.728556925856
  20
2.031259720945
  30
0
  11
6.791548991767
  21
2.031259720945
  31
0
  0
LINE
  8
0
  10
6.791548991767
  20
2.031259720945
  30
0
  11
6.791548991767
  21
1.999999877261
  31
0
  0
LINE
  8
0
  10
6.791548991767
  20
1.999999876097
  30
0
  11
6.728556925856
  21
1.999999876097
  31
0
  0
LINE
  8
0
  10
6.728556925856
  20
1.999999876097
  30
0
  11
6.728556925856
  21
2.031259719781
  31
0
  0
LINE
  8
0
  10
6.760052958811
  20
1.999999876097
  30
0
  11
6.760052958811
  21
2.031259719781
  31
0
  0
LINE
  8
0
  6
DASHED
  10
6.989566022017
  20
1.999999880791
  30
0.679932541735
  11
6.989566027483
  21
2.031259724474
  31
0.679932541735
  0
LINE
  8
0
  6
DASHED
  10
7.038778625908
  20
2.031259715088
  30
0.679932541735
  11
7.038778620442
  21
1.999999871404
  31
0.679932541735
  0
LINE
  8
0
  6
DASHED
  10
7.038778620442
  20
1.999999872186
  30
0.679932541735
  11
6.989566022017
  21
1.999999880791
  31
0.679932541735
  0
LINE
  8
0
  6
DASHED
  10
6.989566022017
  20
2.031259724474
  30
0.679932541735
  11
7.038778620442
  21
2.03125971587
  31
0.679932541735
  0
LINE
  8
0
  10
6.982676288274
  20
2.031259720945
  30
0
  11
7.045668354185
  21
2.031259720945
  31
0
  0
LINE
  8
0
  10
7.045668354185
  20
2.031259720945
  30
0
  11
7.045668354185
  21
1.999999877261
  31
0
  0
LINE
  8
0
  10
7.045668354185
  20
1.999999876097
  30
0
  11
6.982676288274
  21
1.999999876097
  31
0
  0
LINE
  8
0
  10
6.982676288274
  20
1.999999876097
  30
0
  11
6.982676288274
  21
2.031259719781
  31
0
  0
LINE
  8
0
  10
7.014172321229
  20
1.999999876097
  30
0
  11
7.014172321229
  21
2.031259719781
  31
0
  0
LINE
  8
0
  6
DASHED
  10
7.256158393199
  20
1.999999880791
  30
0.63212687575
  11
7.256158398665
  21
2.031259724474
  31
0.63212687575
  0
LINE
  8
0
  6
DASHED
  10
7.30537099709
  20
2.031259715088
  30
0.63212687575
  11
7.305370991624
  21
1.999999871404
  31
0.63212687575
  0
LINE
  8
0
  6
DASHED
  10
7.305370991624
  20
1.999999872186
  30
0.63212687575
  11
7.256158393199
  21
1.999999880791
  31
0.63212687575
  0
LINE
  8
0
  6
DASHED
  10
7.256158393199
  20
2.031259724474
  30
0.63212687575
  11
7.305370991624
  21
2.03125971587
  31
0.63212687575
  0
LINE
  8
0
  10
7.249268809641
  20
2.031259720945
  30
0
  11
7.312260575182
  21
2.031259720945
  31
0
  0
LINE
  8
0
  10
7.312260575182
  20
2.031259720945
  30
0
  11
7.312260575182
  21
1.999999877261
  31
0
  0
LINE
  8
0
  10
7.312260575182
  20
1.999999876097
  30
0
  11
7.249268809641
  21
1.999999876097
  31
0
  0
LINE
  8
0
  10
7.249268809641
  20
1.999999876097
  30
0
  11
7.249268809641
  21
2.031259719781
  31
0
  0
LINE
  8
0
  10
7.280764692412
  20
1.999999876097
  30
0
  11
7.280764692412
  21
2.031259719781
  31
0
  0
LINE
  8
0
  6
DASHED
  10
6.990041207141
  20
1.999999880791
  30
0.078237939069
  11
6.990041212606
  21
2.031259724474
  31
0.078237939069
  0
LINE
  8
0
  6
DASHED
  10
7.039253811032
  20
2.031259715088
  30
0.078237939069
  11
7.039253805566
  21
1.999999871404
  31
0.078237939069
  0
LINE
  8
0
  6
DASHED
  10
7.039253805566
  20
1.999999872186
  30
0.078237939069
  11
6.990041207141
  21
1.999999880791
  31
0.078237939069
  0
LINE
  8
0
  6
DASHED
  10
6.990041207141
  20
2.031259724474
  30
0.078237939069
  11
7.039253805566
  21
2.03125971587
  31
0.078237939069
  0
LINE
  8
0
  10
6.983151473398
  20
2.031259720945
  30
0
  11
7.046143539309
  21
2.031259720945
  31
0
  0
LINE
  8
0
  10
7.046143539309
  20
2.031259720945
  30
0
  11
7.046143539309
  21
1.999999877261
  31
0
  0
LINE
  8
0
  10
7.046143539309
  20
1.999999876097
  30
0
  11
6.983151473398
  21
1.999999876097
  31
0
  0
LINE
  8
0
  10
6.983151473398
  20
1.999999876097
  30
0
  11
6.983151473398
  21
2.031259719781
  31
0
  0
LINE
  8
0
  10
7.014647506353
  20
1.999999876097
  30
0
  11
7.014647506353
  21
2.031259719781
  31
0
  0
LINE
  8
0
  6
DASHED
  10
7.256158393199
  20
1.999999880791
  30
0.132952862837
  11
7.256158398665
  21
2.031259724474
  31
0.132952862837
  0
LINE
  8
0
  6
DASHED
  10
7.30537099709
  20
2.031259715088
  30
0.132952862837
  11
7.305370991624
  21
1.999999871404
  31
0.132952862837
  0
LINE
  8
0
  6
DASHED
  10
7.305370991624
  20
1.999999872186
  30
0.132952862837
  11
7.256158393199
  21
1.999999880791
  31
0.132952862837
  0
LINE
  8
0
  6
DASHED
  10
7.256158393199
  20
2.031259724474
  30
0.132952862837
  11
7.305370991624
  21
2.03125971587
  31
0.132952862837
  0
LINE
  8
0
  10
7.249268809641
  20
2.031259720945
  30
0
  11
7.312260575182
  21
2.031259720945
  31
0
  0
LINE
  8
0
  10
7.312260575182
  20
2.031259720945
  30
0
  11
7.312260575182
  21
1.999999877261
  31
0
  0
LINE
  8
0
  10
7.312260575182
  20
1.999999876097
  30
0
  11
7.249268809641
  21
1.999999876097
  31
0
  0
LINE
  8
0
  10
7.249268809641
  20
1.999999876097
  30
0
  11
7.249268809641
  21
2.031259719781
  31
0
  0
LINE
  8
0
  10
7.280764692412
  20
1.999999876097
  30
0
  11
7.280764692412
  21
2.031259719781
  31
0
  0
TEXT
  8
0
  40
0.1
  72
0
  10
6.860696161826
  20
1.606299032377
  30
0
  1
Back
  50
0
  0
LINE
  8
0
  10
-0.000000030037
  20
0.999999819778
  30
0
  11
-0.000000030037
  21
-0.000000180222
  31
0
  0
LINE
  8
0
  10
-0.000000030037
  20
0.999999819778
  30
0
  11
0.999999969963
  21
0.999999819778
  31
0
  0
LINE
  8
0
  10
0.999999969963
  20
-0.000000180222
  30
0
  11
0.999999969963
  21
0.999999819778
  31
0
  0
LINE
  8
0
  10
-0.000000030037
  20
-0.000000180222
  30
0
  11
0.999999969963
  21
-0.000000180222
  31
0
  0
TEXT
  8
0
  40
0.1
  72
0
  10
0.299212568388
  20
0.692913205605
  30
0
  1
1"x1"
  50
0
  0
TEXT
  8
0
  40
0.1
  72
0
  10
0.275590521144
  20
0.43307068592
  30
0
  1
scaling
  50
0
  0
TEXT
  8
0
  40
0.1
  72
0
  10
0.208661387286
  20
0.177165174109
  30
0
  1
reference
  50
0
  0
ENDSEC
  0
EOF
