  0
SECTION
  2
HEADER
  9
$ACADVER
  1
AC1009
  9
$MEASUREMENT
  70
0
  9
$INSUNITS
  70
1
  9
$DIMLFAC
  40
0.999999995904
  9
$INSBASE
  10
0.0
  20
0.0
  30
0.0
  9
$EXTMIN
  10
-0.000000030037
  20
-0.787401539584
  9
$EXTMAX
  10
7.873944354816
  20
2.472441020416
  9
$LIMMIN
  10
-0.000000030037
  20
-0.787401539584
  9
$LIMMAX
  10
7.873944354816
  20
2.472441020416
  9
$CLAYER
  8
0
  0
ENDSEC
  0
SECTION
  2
TABLES
  0
TABLE
  2
LTYPE
  70
2
  0
LTYPE
  2
CONTINUOUS
  70
65
  3
Solid line
  72
65
  73
0
  40
0
  0
LTYPE
  2
DASHED
  70
65
  3
 _ _ _ _ _ _ _ _ _ _ _ _ _ _ _ _ _ _ _ _ _ _
  72
65
  73
2
  40
1.999999991808
  49
0.999999995904
  49
-0.999999995904
  0
ENDTAB
  0
TABLE
  2
LAYER
  70
1
  0
LAYER
  2
0
  70
0
  62
7
  6
CONTINUOUS
  0
ENDTAB
  0
ENDSEC
  0
SECTION
  2
BLOCKS
  0
ENDSEC
  0
SECTION
  2
ENTITIES
  0
CIRCLE
  8
0
  10
2.244509696
  20
2.236215197696
  30
0
  40
0.18700787712
  0
CIRCLE
  8
0
  10
2.925611974656
  20
2.236215197696
  30
0
  40
0.024606298112
  0
CIRCLE
  8
0
  10
2.803564806144
  20
2.236215984128
  30
0
  40
0.035433070592
  0
CIRCLE
  8
0
  10
2.685454516224
  20
2.236217032704
  30
0
  40
0.035433070592
  0
CIRCLE
  8
0
  10
2.925611974656
  20
2.236215197696
  30
0.031249999872
  40
0.031495999488
  0
CIRCLE
  8
0
  10
2.54516527104
  20
2.236214411264
  30
0
  40
0.024606298112
  0
CIRCLE
  8
0
  10
2.54516527104
  20
2.236214411264
  30
0.031249999872
  40
0.031495999488
  0
LINE
  8
0
  10
2.118110206183
  20
1.999999969963
  30
0.03125
  11
2.413385796735
  21
1.999999969963
  31
0.03125
  0
LINE
  8
0
  10
2.413385796735
  20
1.999999969963
  30
0.03125
  11
2.472440914845
  21
2.059055088073
  31
0.03125
  0
LINE
  8
0
  10
2.472440914845
  20
2.059055088073
  30
0.03125
  11
2.472440914845
  21
2.098425166813
  31
0.03125
  0
LINE
  8
0
  10
2.472440914845
  20
2.098425166813
  30
0.03125
  11
2.629921229806
  21
2.098425166813
  31
0.03125
  0
LINE
  8
0
  10
2.629921079621
  20
2.098425166813
  30
0.03125
  11
2.629921079621
  21
2.118110206183
  31
0.03125
  0
LINE
  8
0
  10
2.629921079621
  20
2.118110206183
  30
0.03125
  11
2.868092276506
  21
2.118107616094
  31
0.03125
  0
LINE
  8
0
  10
2.868092454325
  20
2.11810765304
  30
0.03125
  11
2.868092491191
  21
2.098420036187
  31
0.03125
  0
LINE
  8
0
  10
2.868092454325
  20
2.098419910341
  30
0.03125
  11
2.986202672062
  21
2.098417489097
  31
0.03125
  0
LINE
  8
0
  10
2.986202690545
  20
2.098414804053
  30
0.03125
  11
2.986202672087
  21
2.374009295097
  31
0.03125
  0
LINE
  8
0
  10
2.986202690545
  20
2.374009260042
  30
0.03125
  11
2.868092454349
  21
2.37401562115
  31
0.03125
  0
LINE
  8
0
  10
2.868092454325
  20
2.37401556781
  30
0.03125
  11
2.868092454325
  21
2.354330529641
  31
0.03125
  0
LINE
  8
0
  10
2.868092454325
  20
2.354330678624
  30
0.03125
  11
2.629921220573
  21
2.354330678624
  31
0.03125
  0
LINE
  8
0
  10
2.629921079621
  20
2.354330678624
  30
0.03125
  11
2.629921079621
  21
2.374015717995
  31
0.03125
  0
LINE
  8
0
  10
2.629921079621
  20
2.374015717995
  30
0.03125
  11
2.47244076466
  21
2.374015717995
  31
0.03125
  0
LINE
  8
0
  10
2.472440914845
  20
2.374015717995
  30
0.03125
  11
2.472440914845
  21
2.413385796735
  31
0.03125
  0
LINE
  8
0
  10
2.472440914845
  20
2.413385796735
  30
0.03125
  11
2.413385796735
  21
2.472440914845
  31
0.03125
  0
LINE
  8
0
  10
2.413385796735
  20
2.472440914845
  30
0.03125
  11
2.118110206183
  21
2.472440914845
  31
0.03125
  0
LINE
  8
0
  10
2.118110206183
  20
2.472440914845
  30
0.03125
  11
1.999999969963
  21
2.354330678624
  31
0.03125
  0
LINE
  8
0
  10
1.999999969963
  20
2.354330678624
  30
0.03125
  11
1.999999969963
  21
2.255905481774
  31
0.03125
  0
ARC
  8
0
  10
1.999999969963
  20
2.236220442404
  30
0.03125
  40
0.01968503937
  50
-90
  51
90
  0
LINE
  8
0
  10
1.999999969963
  20
2.216535403034
  30
0.03125
  11
1.999999969963
  21
2.118110206183
  31
0.03125
  0
LINE
  8
0
  10
1.999999969963
  20
2.118110206183
  30
0.03125
  11
2.118110206183
  21
1.999999969963
  31
0.03125
  0
TEXT
  8
0
  40
0.1
  72
0
  10
2.355306129756
  20
1.606299182561
  30
0
  1
Top
  50
0
  0
LINE
  8
0
  6
DASHED
  10
3.301163320466
  20
2.472440914845
  30
0.03125
  11
3.596438911017
  21
2.472440914845
  31
0.03125
  0
LINE
  8
0
  6
DASHED
  10
3.596438911017
  20
2.472440914845
  30
0.03125
  11
3.655494029128
  21
2.413385796735
  31
0.03125
  0
LINE
  8
0
  6
DASHED
  10
3.655494029128
  20
2.413385796735
  30
0.03125
  11
3.655494029128
  21
2.374015717995
  31
0.03125
  0
LINE
  8
0
  6
DASHED
  10
3.655494029128
  20
2.374015717995
  30
0.03125
  11
3.812974344088
  21
2.374015717995
  31
0.03125
  0
LINE
  8
0
  6
DASHED
  10
3.812974193903
  20
2.374015717995
  30
0.03125
  11
3.812974193903
  21
2.354330678624
  31
0.03125
  0
LINE
  8
0
  6
DASHED
  10
3.812974193903
  20
2.354330678624
  30
0.03125
  11
4.051145390788
  21
2.354333268714
  31
0.03125
  0
LINE
  8
0
  6
DASHED
  10
4.051145568607
  20
2.354333231768
  30
0.03125
  11
4.051145605474
  21
2.374020848621
  31
0.03125
  0
LINE
  8
0
  6
DASHED
  10
4.051145568607
  20
2.374020974467
  30
0.03125
  11
4.169255786345
  21
2.374023395711
  31
0.03125
  0
LINE
  8
0
  6
DASHED
  10
4.169255804828
  20
2.374026080755
  30
0.03125
  11
4.16925578637
  21
2.098431589711
  31
0.03125
  0
LINE
  8
0
  6
DASHED
  10
4.169255804828
  20
2.098431624765
  30
0.03125
  11
4.051145568632
  21
2.098425263658
  31
0.03125
  0
LINE
  8
0
  6
DASHED
  10
4.051145568607
  20
2.098425316998
  30
0.03125
  11
4.051145568607
  21
2.118110355167
  31
0.03125
  0
LINE
  8
0
  6
DASHED
  10
4.051145568607
  20
2.118110206183
  30
0.03125
  11
3.812974334856
  21
2.118110206183
  31
0.03125
  0
LINE
  8
0
  6
DASHED
  10
3.812974193903
  20
2.118110206183
  30
0.03125
  11
3.812974193903
  21
2.098425166813
  31
0.03125
  0
LINE
  8
0
  6
DASHED
  10
3.812974193903
  20
2.098425166813
  30
0.03125
  11
3.655493878943
  21
2.098425166813
  31
0.03125
  0
LINE
  8
0
  6
DASHED
  10
3.655494029128
  20
2.098425166813
  30
0.03125
  11
3.655494029128
  21
2.059055088073
  31
0.03125
  0
LINE
  8
0
  6
DASHED
  10
3.655494029128
  20
2.059055088073
  30
0.03125
  11
3.596438911017
  21
1.999999969963
  31
0.03125
  0
LINE
  8
0
  6
DASHED
  10
3.596438911017
  20
1.999999969963
  30
0.03125
  11
3.301163320466
  21
1.999999969963
  31
0.03125
  0
LINE
  8
0
  6
DASHED
  10
3.301163320466
  20
1.999999969963
  30
0.03125
  11
3.183053084246
  21
2.118110206183
  31
0.03125
  0
LINE
  8
0
  6
DASHED
  10
3.183053084246
  20
2.118110206183
  30
0.03125
  11
3.183053084246
  21
2.216535403034
  31
0.03125
  0
ARC
  8
0
  6
DASHED
  10
3.183053084246
  20
2.236220442404
  30
0.03125
  40
0.01968503937
  50
-90
  51
90
  0
LINE
  8
0
  6
DASHED
  10
3.183053084246
  20
2.255905481774
  30
0.03125
  11
3.183053084246
  21
2.354330678624
  31
0.03125
  0
LINE
  8
0
  6
DASHED
  10
3.183053084246
  20
2.354330678624
  30
0.03125
  11
3.301163320466
  21
2.472440914845
  31
0.03125
  0
CIRCLE
  8
0
  10
3.427562863808
  20
2.236225698877
  30
0
  40
0.187007874016
  0
CIRCLE
  8
0
  10
3.868507775735
  20
2.236223896657
  30
0
  40
0.035433070866
  0
CIRCLE
  8
0
  10
3.986618011955
  20
2.236224797767
  30
0
  40
0.035433070866
  0
CIRCLE
  8
0
  10
3.728218529168
  20
2.236226449801
  30
0
  40
0.024606299213
  0
CIRCLE
  8
0
  10
4.108665195976
  20
2.236225698877
  30
0
  40
0.024606299213
  0
TEXT
  8
0
  40
0.1
  72
0
  10
3.538359168946
  20
1.606299182561
  30
0
  1
Bottom
  50
0
  0
LINE
  8
0
  10
4.838547143411
  20
2.031250002347
  30
0.986202720582
  11
4.838547143411
  21
2.000000002816
  31
0.986202720582
  0
LINE
  8
0
  10
4.366106198529
  20
2.000000002816
  30
0.986202720582
  11
4.366106198529
  21
2.031250002347
  31
0.986202720582
  0
LINE
  8
0
  10
4.366106198529
  20
2.031250002347
  30
0.986202720582
  11
4.838547143411
  21
2.031250002347
  31
0.986202720582
  0
LINE
  8
0
  10
4.838547143411
  20
2.000000002816
  30
0.986202720582
  11
4.366106198529
  21
2.000000002816
  31
0.986202720582
  0
LINE
  8
0
  6
DASHED
  10
4.789339801458
  20
2.031249969494
  30
0.928700815036
  11
4.789339795994
  21
1.999999969963
  31
0.928700815036
  0
LINE
  8
0
  6
DASHED
  10
4.415324047963
  20
2.000000035669
  30
0.928700815036
  11
4.415324053426
  21
2.0312500352
  31
0.928700815036
  0
LINE
  8
0
  6
DASHED
  10
4.415324053426
  20
2.031250034889
  30
0.928700815036
  11
4.789339801458
  21
2.031249969494
  31
0.928700815036
  0
LINE
  8
0
  6
DASHED
  10
4.789339801458
  20
1.999999969963
  30
0.928700815036
  11
4.415324053426
  21
2.000000035358
  31
0.928700815036
  0
LINE
  8
0
  10
4.602331927442
  20
2.031250002347
  30
0
  11
4.602331927442
  21
2.000000002816
  31
0
  0
LINE
  8
0
  6
DASHED
  10
4.637764157273
  20
2.031249995307
  30
0.218070923813
  11
4.637764151809
  21
1.999999995776
  31
0.218070923813
  0
LINE
  8
0
  6
DASHED
  10
4.566897889929
  20
2.000000009856
  30
0.218070923813
  11
4.566897895392
  21
2.031250009387
  31
0.218070923813
  0
LINE
  8
0
  6
DASHED
  10
4.566897895392
  20
2.031250007697
  30
0.218070923813
  11
4.637764157273
  21
2.031249995307
  31
0.218070923813
  0
LINE
  8
0
  6
DASHED
  10
4.637764157273
  20
1.999999995776
  30
0.218070923813
  11
4.566897895392
  21
2.000000008167
  31
0.218070923813
  0
LINE
  8
0
  10
4.602331026333
  20
2.031250002347
  30
0
  11
4.602331026333
  21
2.000000002816
  31
0
  0
LINE
  8
0
  6
DASHED
  10
4.637763256163
  20
2.031249995307
  30
0.336181160033
  11
4.637763250699
  21
1.999999995776
  31
0.336181160033
  0
LINE
  8
0
  6
DASHED
  10
4.566896988819
  20
2.000000009856
  30
0.336181160033
  11
4.566896994283
  21
2.031250009387
  31
0.336181160033
  0
LINE
  8
0
  6
DASHED
  10
4.566896994283
  20
2.031250007697
  30
0.336181160033
  11
4.637763256163
  21
2.031249995307
  31
0.336181160033
  0
LINE
  8
0
  6
DASHED
  10
4.637763256163
  20
1.999999995776
  30
0.336181160033
  11
4.566896994283
  21
2.000000008167
  31
0.336181160033
  0
LINE
  8
0
  10
4.602330125223
  20
2.031250002347
  30
0
  11
4.602330125223
  21
2.000000002816
  31
0
  0
LINE
  8
0
  6
DASHED
  10
4.626938226655
  20
2.031249997653
  30
0.085196908065
  11
4.626938221191
  21
1.999999998123
  31
0.085196908065
  0
LINE
  8
0
  6
DASHED
  10
4.577725622766
  20
2.000000007509
  30
0.085196908065
  11
4.57772562823
  21
2.03125000704
  31
0.085196908065
  0
LINE
  8
0
  6
DASHED
  10
4.57772562823
  20
2.031250006258
  30
0.085196908065
  11
4.626938226655
  21
2.031249997653
  31
0.085196908065
  0
LINE
  8
0
  6
DASHED
  10
4.626938226655
  20
1.999999998123
  30
0.085196908065
  11
4.57772562823
  21
2.000000006727
  31
0.085196908065
  0
LINE
  8
0
  10
4.633827960397
  20
2.000000003285
  30
0
  11
4.570835894487
  21
2.000000003285
  31
0
  0
LINE
  8
0
  10
4.570835894487
  20
2.000000003285
  30
0
  11
4.570835894487
  21
2.031250002816
  31
0
  0
LINE
  8
0
  10
4.570835894487
  20
2.031250002347
  30
0
  11
4.633827960397
  21
2.031250002347
  31
0
  0
LINE
  8
0
  10
4.633827960397
  20
2.031250002347
  30
0
  11
4.633827960397
  21
2.000000002816
  31
0
  0
LINE
  8
0
  10
4.602331927442
  20
2.031250002347
  30
0
  11
4.602331927442
  21
2.000000002816
  31
0
  0
LINE
  8
0
  6
DASHED
  10
4.626938977579
  20
2.031249997653
  30
0.465643574872
  11
4.626938972116
  21
1.999999998123
  31
0.465643574872
  0
LINE
  8
0
  6
DASHED
  10
4.57772637369
  20
2.000000007509
  30
0.465643574872
  11
4.577726379154
  21
2.03125000704
  31
0.465643574872
  0
LINE
  8
0
  6
DASHED
  10
4.577726379154
  20
2.031250006258
  30
0.465643574872
  11
4.626938977579
  21
2.031249997653
  31
0.465643574872
  0
LINE
  8
0
  6
DASHED
  10
4.626938977579
  20
1.999999998123
  30
0.465643574872
  11
4.577726379154
  21
2.000000006727
  31
0.465643574872
  0
LINE
  8
0
  10
4.633828711322
  20
2.000000003285
  30
0
  11
4.570836645412
  21
2.000000003285
  31
0
  0
LINE
  8
0
  10
4.570836645412
  20
2.000000003285
  30
0
  11
4.570836645412
  21
2.031250002816
  31
0
  0
LINE
  8
0
  10
4.570836645412
  20
2.031250002347
  30
0
  11
4.633828711322
  21
2.031250002347
  31
0
  0
LINE
  8
0
  10
4.633828711322
  20
2.031250002347
  30
0
  11
4.633828711322
  21
2.000000002816
  31
0
  0
LINE
  8
0
  10
4.602332678367
  20
2.031250002347
  30
0
  11
4.602332678367
  21
2.000000002816
  31
0
  0
TEXT
  8
0
  40
0.1
  72
0
  10
4.464531395379
  20
1.606299182561
  30
0
  1
Left
  50
0
  0
LINE
  8
0
  10
5.035397537111
  20
2.031250002347
  30
0.986202720582
  11
5.035397537111
  21
2.000000002816
  31
0.986202720582
  0
LINE
  8
0
  10
5.507838481993
  20
2.000000002816
  30
0.986202720582
  11
5.507838481993
  21
2.031250002347
  31
0.986202720582
  0
LINE
  8
0
  10
5.507838481993
  20
2.031250002347
  30
0.986202720582
  11
5.035397537111
  21
2.031250002347
  31
0.986202720582
  0
LINE
  8
0
  10
5.035397537111
  20
2.000000002816
  30
0.986202720582
  11
5.507838481993
  21
2.000000002816
  31
0.986202720582
  0
LINE
  8
0
  6
DASHED
  10
5.084604879064
  20
2.031249969494
  30
0.431517653578
  11
5.084604884528
  21
1.999999969963
  31
0.431517653578
  0
LINE
  8
0
  6
DASHED
  10
5.458620632559
  20
2.000000035669
  30
0.431517653578
  11
5.458620627095
  21
2.0312500352
  31
0.431517653578
  0
LINE
  8
0
  6
DASHED
  10
5.458620627095
  20
2.031250034889
  30
0.431517653578
  11
5.084604879064
  21
2.031249969494
  31
0.431517653578
  0
LINE
  8
0
  6
DASHED
  10
5.084604879064
  20
1.999999969963
  30
0.431517653578
  11
5.458620627095
  21
2.000000035358
  31
0.431517653578
  0
LINE
  8
0
  10
5.27161275308
  20
2.031250002347
  30
0
  11
5.27161275308
  21
2.000000002816
  31
0
  0
LINE
  8
0
  6
DASHED
  10
5.236180523249
  20
2.031249995307
  30
0.838998058649
  11
5.236180528713
  21
1.999999995776
  31
0.838998058649
  0
LINE
  8
0
  6
DASHED
  10
5.307046790593
  20
2.000000009856
  30
0.838998058649
  11
5.307046785129
  21
2.031250009387
  31
0.838998058649
  0
LINE
  8
0
  6
DASHED
  10
5.307046785129
  20
2.031250007697
  30
0.838998058649
  11
5.236180523249
  21
2.031249995307
  31
0.838998058649
  0
LINE
  8
0
  6
DASHED
  10
5.236180523249
  20
1.999999995776
  30
0.838998058649
  11
5.307046785129
  21
2.000000008167
  31
0.838998058649
  0
LINE
  8
0
  10
5.271613654189
  20
2.031250002347
  30
0
  11
5.271613654189
  21
2.000000002816
  31
0
  0
LINE
  8
0
  6
DASHED
  10
5.236181424359
  20
2.031249995307
  30
0.720887822429
  11
5.236181429823
  21
1.999999995776
  31
0.720887822429
  0
LINE
  8
0
  6
DASHED
  10
5.307047691703
  20
2.000000009856
  30
0.720887822429
  11
5.307047686239
  21
2.031250009387
  31
0.720887822429
  0
LINE
  8
0
  6
DASHED
  10
5.307047686239
  20
2.031250007697
  30
0.720887822429
  11
5.236181424359
  21
2.031249995307
  31
0.720887822429
  0
LINE
  8
0
  6
DASHED
  10
5.236181424359
  20
1.999999995776
  30
0.720887822429
  11
5.307047686239
  21
2.000000008167
  31
0.720887822429
  0
LINE
  8
0
  10
5.271614555299
  20
2.031250002347
  30
0
  11
5.271614555299
  21
2.000000002816
  31
0
  0
LINE
  8
0
  6
DASHED
  10
5.247006453867
  20
2.031249997653
  30
0.950218410942
  11
5.247006459331
  21
1.999999998123
  31
0.950218410942
  0
LINE
  8
0
  6
DASHED
  10
5.296219057756
  20
2.000000007509
  30
0.950218410942
  11
5.296219052292
  21
2.03125000704
  31
0.950218410942
  0
LINE
  8
0
  6
DASHED
  10
5.296219052292
  20
2.031250006258
  30
0.950218410942
  11
5.247006453867
  21
2.031249997653
  31
0.950218410942
  0
LINE
  8
0
  6
DASHED
  10
5.247006453867
  20
1.999999998123
  30
0.950218410942
  11
5.296219052292
  21
2.000000006727
  31
0.950218410942
  0
LINE
  8
0
  10
5.240116720124
  20
2.000000003285
  30
0
  11
5.303108786035
  21
2.000000003285
  31
0
  0
LINE
  8
0
  10
5.303108786035
  20
2.000000003285
  30
0
  11
5.303108786035
  21
2.031250002816
  31
0
  0
LINE
  8
0
  10
5.303108786035
  20
2.031250002347
  30
0
  11
5.240116720124
  21
2.031250002347
  31
0
  0
LINE
  8
0
  10
5.240116720124
  20
2.031250002347
  30
0
  11
5.240116720124
  21
2.000000002816
  31
0
  0
LINE
  8
0
  10
5.27161275308
  20
2.031250002347
  30
0
  11
5.27161275308
  21
2.000000002816
  31
0
  0
LINE
  8
0
  6
DASHED
  10
5.247005702942
  20
2.031249997653
  30
0.569771744135
  11
5.247005708406
  21
1.999999998123
  31
0.569771744135
  0
LINE
  8
0
  6
DASHED
  10
5.296218306831
  20
2.000000007509
  30
0.569771744135
  11
5.296218301368
  21
2.03125000704
  31
0.569771744135
  0
LINE
  8
0
  6
DASHED
  10
5.296218301368
  20
2.031250006258
  30
0.569771744135
  11
5.247005702942
  21
2.031249997653
  31
0.569771744135
  0
LINE
  8
0
  6
DASHED
  10
5.247005702942
  20
1.999999998123
  30
0.569771744135
  11
5.296218301368
  21
2.000000006727
  31
0.569771744135
  0
LINE
  8
0
  10
5.2401159692
  20
2.000000003285
  30
0
  11
5.30310803511
  21
2.000000003285
  31
0
  0
LINE
  8
0
  10
5.30310803511
  20
2.000000003285
  30
0
  11
5.30310803511
  21
2.031250002816
  31
0
  0
LINE
  8
0
  10
5.30310803511
  20
2.031250002347
  30
0
  11
5.2401159692
  21
2.031250002347
  31
0
  0
LINE
  8
0
  10
5.2401159692
  20
2.031250002347
  30
0
  11
5.2401159692
  21
2.000000002816
  31
0
  0
LINE
  8
0
  10
5.271612002155
  20
2.031250002347
  30
0
  11
5.271612002155
  21
2.000000002816
  31
0
  0
TEXT
  8
0
  40
0.1
  72
0
  10
5.133822733962
  20
1.606299182561
  30
0
  1
Right
  50
0
  0
LINE
  8
0
  10
5.704688875694
  20
2.031250002347
  30
0.472440944882
  11
5.704688875694
  21
2.000000002816
  31
0.472440944882
  0
LINE
  8
0
  10
6.690891596276
  20
2.000000002816
  30
0.472440944882
  11
6.690891596276
  21
2.031250002347
  31
0.472440944882
  0
LINE
  8
0
  10
6.690891596276
  20
2.031250002347
  30
0.472440944882
  11
5.704688875694
  21
2.031250002347
  31
0.472440944882
  0
LINE
  8
0
  10
5.704688875694
  20
2.000000002816
  30
0.472440944882
  11
6.690891596276
  21
2.000000002816
  31
0.472440944882
  0
LINE
  8
0
  6
DASHED
  10
5.76219078124
  20
2.031249969494
  30
0.423233602929
  11
5.762190786704
  21
1.999999969963
  31
0.423233602929
  0
LINE
  8
0
  6
DASHED
  10
6.136206534736
  20
2.000000035669
  30
0.423233602929
  11
6.136206529272
  21
2.0312500352
  31
0.423233602929
  0
LINE
  8
0
  6
DASHED
  10
6.136206529272
  20
2.031250034889
  30
0.423233602929
  11
5.76219078124
  21
2.031249969494
  31
0.423233602929
  0
LINE
  8
0
  6
DASHED
  10
5.76219078124
  20
1.999999969963
  30
0.423233602929
  11
6.136206529272
  21
2.000000035358
  31
0.423233602929
  0
LINE
  8
0
  10
5.949198655256
  20
2.031250002347
  30
0
  11
5.949198655256
  21
2.000000002816
  31
0
  0
LINE
  8
0
  6
DASHED
  10
6.472820672463
  20
2.031249995307
  30
0.271657958744
  11
6.472820677927
  21
1.999999995776
  31
0.271657958744
  0
LINE
  8
0
  6
DASHED
  10
6.543686939807
  20
2.000000009856
  30
0.271657958744
  11
6.543686934343
  21
2.031250009387
  31
0.271657958744
  0
LINE
  8
0
  6
DASHED
  10
6.543686934343
  20
2.031250007697
  30
0.271657958744
  11
6.472820672463
  21
2.031249995307
  31
0.271657958744
  0
LINE
  8
0
  6
DASHED
  10
6.472820672463
  20
1.999999995776
  30
0.271657958744
  11
6.543686934343
  21
2.000000008167
  31
0.271657958744
  0
LINE
  8
0
  10
6.508253803403
  20
2.031250002347
  30
0
  11
6.508253803403
  21
2.000000002816
  31
0
  0
LINE
  8
0
  6
DASHED
  10
6.354710436243
  20
2.031249995307
  30
0.271657057634
  11
6.354710441707
  21
1.999999995776
  31
0.271657057634
  0
LINE
  8
0
  6
DASHED
  10
6.425576703587
  20
2.000000009856
  30
0.271657057634
  11
6.425576698123
  21
2.031250009387
  31
0.271657057634
  0
LINE
  8
0
  6
DASHED
  10
6.425576698123
  20
2.031250007697
  30
0.271657057634
  11
6.354710436243
  21
2.031249995307
  31
0.271657057634
  0
LINE
  8
0
  6
DASHED
  10
6.354710436243
  20
1.999999995776
  30
0.271657057634
  11
6.425576698123
  21
2.000000008167
  31
0.271657057634
  0
LINE
  8
0
  10
6.390143567183
  20
2.031250002347
  30
0
  11
6.390143567183
  21
2.000000002816
  31
0
  0
LINE
  8
0
  6
DASHED
  10
6.605694688211
  20
2.031249997653
  30
0.260832028126
  11
6.605694693675
  21
1.999999998123
  31
0.260832028126
  0
LINE
  8
0
  6
DASHED
  10
6.6549072921
  20
2.000000007509
  30
0.260832028126
  11
6.654907286636
  21
2.03125000704
  31
0.260832028126
  0
LINE
  8
0
  6
DASHED
  10
6.654907286636
  20
2.031250006258
  30
0.260832028126
  11
6.605694688211
  21
2.031249997653
  31
0.260832028126
  0
LINE
  8
0
  6
DASHED
  10
6.605694688211
  20
1.999999998123
  30
0.260832028126
  11
6.654907286636
  21
2.000000006727
  31
0.260832028126
  0
LINE
  8
0
  10
6.598805104654
  20
2.000000003285
  30
0
  11
6.661796870194
  21
2.000000003285
  31
0
  0
LINE
  8
0
  10
6.661796870194
  20
2.000000003285
  30
0
  11
6.661796870194
  21
2.031250002816
  31
0
  0
LINE
  8
0
  10
6.661796870194
  20
2.031250002347
  30
0
  11
6.598805104654
  21
2.031250002347
  31
0
  0
LINE
  8
0
  10
6.598805104654
  20
2.031250002347
  30
0
  11
6.598805104654
  21
2.000000002816
  31
0
  0
LINE
  8
0
  10
6.630300987424
  20
2.031250002347
  30
0
  11
6.630300987424
  21
2.000000002816
  31
0
  0
LINE
  8
0
  6
DASHED
  10
6.225248021404
  20
2.031249997653
  30
0.260832779051
  11
6.225248026868
  21
1.999999998123
  31
0.260832779051
  0
LINE
  8
0
  6
DASHED
  10
6.274460625293
  20
2.000000007509
  30
0.260832779051
  11
6.274460619829
  21
2.03125000704
  31
0.260832779051
  0
LINE
  8
0
  6
DASHED
  10
6.274460619829
  20
2.031250006258
  30
0.260832779051
  11
6.225248021404
  21
2.031249997653
  31
0.260832779051
  0
LINE
  8
0
  6
DASHED
  10
6.225248021404
  20
1.999999998123
  30
0.260832779051
  11
6.274460619829
  21
2.000000006727
  31
0.260832779051
  0
LINE
  8
0
  10
6.218358287661
  20
2.000000003285
  30
0
  11
6.281350203386
  21
2.000000003285
  31
0
  0
LINE
  8
0
  10
6.281350203386
  20
2.000000003285
  30
0
  11
6.281350203386
  21
2.031250002816
  31
0
  0
LINE
  8
0
  10
6.281350203386
  20
2.031250002347
  30
0
  11
6.218358287661
  21
2.031250002347
  31
0
  0
LINE
  8
0
  10
6.218358287661
  20
2.031250002347
  30
0
  11
6.218358287661
  21
2.000000002816
  31
0
  0
LINE
  8
0
  10
6.249854320616
  20
2.031250002347
  30
0
  11
6.249854320616
  21
2.000000002816
  31
0
  0
TEXT
  8
0
  40
0.1
  72
0
  10
6.059994960394
  20
1.606299182561
  30
0
  1
Front
  50
0
  0
LINE
  8
0
  10
6.887741989977
  20
2.000000002816
  30
0.472440944882
  11
6.887741989977
  21
2.031250002347
  31
0.472440944882
  0
LINE
  8
0
  10
7.873944710559
  20
2.031250002347
  30
0.472440944882
  11
7.873944710559
  21
2.000000002816
  31
0.472440944882
  0
LINE
  8
0
  10
7.873944710559
  20
2.000000002816
  30
0.472440944882
  11
6.887741989977
  21
2.000000002816
  31
0.472440944882
  0
LINE
  8
0
  10
6.887741989977
  20
2.031250002347
  30
0.472440944882
  11
7.873944710559
  21
2.031250002347
  31
0.472440944882
  0
LINE
  8
0
  6
DASHED
  10
6.945243895523
  20
2.000000035669
  30
0.423223089984
  11
6.945243900987
  21
2.0312500352
  31
0.423223089984
  0
LINE
  8
0
  6
DASHED
  10
7.319259649019
  20
2.031249969494
  30
0.423223089984
  11
7.319259643555
  21
1.999999969963
  31
0.423223089984
  0
LINE
  8
0
  6
DASHED
  10
7.319259643555
  20
1.999999970274
  30
0.423223089984
  11
6.945243895523
  21
2.000000035669
  31
0.423223089984
  0
LINE
  8
0
  6
DASHED
  10
6.945243895523
  20
2.0312500352
  30
0.423223089984
  11
7.319259643555
  21
2.031249969805
  31
0.423223089984
  0
LINE
  8
0
  10
7.132251769539
  20
2.000000002816
  30
0
  11
7.132251769539
  21
2.031250002347
  31
0
  0
LINE
  8
0
  6
DASHED
  10
7.655873786746
  20
2.000000009856
  30
0.271649248018
  11
7.65587379221
  21
2.031250009387
  31
0.271649248018
  0
LINE
  8
0
  6
DASHED
  10
7.72674005409
  20
2.031249995307
  30
0.271649248018
  11
7.726740048626
  21
1.999999995776
  31
0.271649248018
  0
LINE
  8
0
  6
DASHED
  10
7.726740048626
  20
1.999999997465
  30
0.271649248018
  11
7.655873786746
  21
2.000000009856
  31
0.271649248018
  0
LINE
  8
0
  6
DASHED
  10
7.655873786746
  20
2.031250009387
  30
0.271649248018
  11
7.726740048626
  21
2.031249996996
  31
0.271649248018
  0
LINE
  8
0
  10
7.691306917686
  20
2.000000002816
  30
0
  11
7.691306917686
  21
2.031250002347
  31
0
  0
LINE
  8
0
  6
DASHED
  10
7.537763550526
  20
2.000000009856
  30
0.271650149128
  11
7.537763555989
  21
2.031250009387
  31
0.271650149128
  0
LINE
  8
0
  6
DASHED
  10
7.60862981787
  20
2.031249995307
  30
0.271650149128
  11
7.608629812406
  21
1.999999995776
  31
0.271650149128
  0
LINE
  8
0
  6
DASHED
  10
7.608629812406
  20
1.999999997465
  30
0.271650149128
  11
7.537763550526
  21
2.000000009856
  31
0.271650149128
  0
LINE
  8
0
  6
DASHED
  10
7.537763550526
  20
2.031250009387
  30
0.271650149128
  11
7.608629812406
  21
2.031249996996
  31
0.271650149128
  0
LINE
  8
0
  10
7.573196681466
  20
2.000000002816
  30
0
  11
7.573196681466
  21
2.031250002347
  31
0
  0
LINE
  8
0
  6
DASHED
  10
7.788747802494
  20
2.000000007509
  30
0.260821515181
  11
7.788747807958
  21
2.03125000704
  31
0.260821515181
  0
LINE
  8
0
  6
DASHED
  10
7.837960406383
  20
2.031249997653
  30
0.260821515181
  11
7.837960400919
  21
1.999999998123
  31
0.260821515181
  0
LINE
  8
0
  6
DASHED
  10
7.837960400919
  20
1.999999998905
  30
0.260821515181
  11
7.788747802494
  21
2.000000007509
  31
0.260821515181
  0
LINE
  8
0
  6
DASHED
  10
7.788747802494
  20
2.03125000704
  30
0.260821515181
  11
7.837960400919
  21
2.031249998435
  31
0.260821515181
  0
LINE
  8
0
  10
7.781858218936
  20
2.031250001877
  30
0
  11
7.844849984477
  21
2.031250001877
  31
0
  0
LINE
  8
0
  10
7.844849984477
  20
2.031250001877
  30
0
  11
7.844849984477
  21
2.000000002347
  31
0
  0
LINE
  8
0
  10
7.844849984477
  20
2.000000002816
  30
0
  11
7.781858218936
  21
2.000000002816
  31
0
  0
LINE
  8
0
  10
7.781858218936
  20
2.000000002816
  30
0
  11
7.781858218936
  21
2.031250002347
  31
0
  0
LINE
  8
0
  10
7.813354101707
  20
2.000000002816
  30
0
  11
7.813354101707
  21
2.031250002347
  31
0
  0
LINE
  8
0
  6
DASHED
  10
7.408301135686
  20
2.000000007509
  30
0.260820764256
  11
7.40830114115
  21
2.03125000704
  31
0.260820764256
  0
LINE
  8
0
  6
DASHED
  10
7.457513739576
  20
2.031249997653
  30
0.260820764256
  11
7.457513734112
  21
1.999999998123
  31
0.260820764256
  0
LINE
  8
0
  6
DASHED
  10
7.457513734112
  20
1.999999998905
  30
0.260820764256
  11
7.408301135686
  21
2.000000007509
  31
0.260820764256
  0
LINE
  8
0
  6
DASHED
  10
7.408301135686
  20
2.03125000704
  30
0.260820764256
  11
7.457513734112
  21
2.031249998435
  31
0.260820764256
  0
LINE
  8
0
  10
7.401411401944
  20
2.031250001877
  30
0
  11
7.464403317669
  21
2.031250001877
  31
0
  0
LINE
  8
0
  10
7.464403317669
  20
2.031250001877
  30
0
  11
7.464403317669
  21
2.000000002347
  31
0
  0
LINE
  8
0
  10
7.464403317669
  20
2.000000002816
  30
0
  11
7.401411401944
  21
2.000000002816
  31
0
  0
LINE
  8
0
  10
7.401411401944
  20
2.000000002816
  30
0
  11
7.401411401944
  21
2.031250002347
  31
0
  0
LINE
  8
0
  10
7.432907434899
  20
2.000000002816
  30
0
  11
7.432907434899
  21
2.031250002347
  31
0
  0
TEXT
  8
0
  40
0.1
  72
0
  10
7.243048074677
  20
1.606299182561
  30
0
  1
Back
  50
0
  0
LINE
  8
0
  10
-0.000000030037
  20
0.999999969963
  30
0
  11
-0.000000030037
  21
-0.000000030037
  31
0
  0
LINE
  8
0
  10
-0.000000030037
  20
0.999999969963
  30
0
  11
0.999999969963
  21
0.999999969963
  31
0
  0
LINE
  8
0
  10
0.999999969963
  20
-0.000000030037
  30
0
  11
0.999999969963
  21
0.999999969963
  31
0
  0
LINE
  8
0
  10
-0.000000030037
  20
-0.000000030037
  30
0
  11
0.999999969963
  21
-0.000000030037
  31
0
  0
TEXT
  8
0
  40
0.1
  72
0
  10
0.299212568388
  20
0.69291335579
  30
0
  1
1"x1"
  50
0
  0
TEXT
  8
0
  40
0.1
  72
0
  10
0.275590521144
  20
0.433070836105
  30
0
  1
scaling
  50
0
  0
TEXT
  8
0
  40
0.1
  72
0
  10
0.208661387286
  20
0.177165324294
  30
0
  1
reference
  50
0
  0
ENDSEC
  0
EOF
