  0
SECTION
  2
HEADER
  9
$ACADVER
  1
AC1009
  9
$MEASUREMENT
  70
0
  9
$INSUNITS
  70
1
  9
$DIMLFAC
  40
0.999999995904
  9
$INSBASE
  10
0.0
  20
0.0
  30
0.0
  9
$EXTMIN
  10
-0.000000030037
  20
-0.787401408512
  9
$EXTMAX
  10
13.228345131008
  20
2.374015909888
  9
$LIMMIN
  10
-0.000000030037
  20
-0.787401408512
  9
$LIMMAX
  10
13.228345131008
  20
2.374015909888
  9
$CLAYER
  8
0
  0
ENDSEC
  0
SECTION
  2
TABLES
  0
TABLE
  2
LTYPE
  70
2
  0
LTYPE
  2
CONTINUOUS
  70
65
  3
Solid line
  72
65
  73
0
  40
0
  0
LTYPE
  2
DASHED
  70
65
  3
 _ _ _ _ _ _ _ _ _ _ _ _ _ _ _ _ _ _ _ _ _ _
  72
65
  73
2
  40
1.999999991808
  49
0.999999995904
  49
-0.999999995904
  0
ENDTAB
  0
TABLE
  2
LAYER
  70
1
  0
LAYER
  2
0
  70
0
  62
7
  6
CONTINUOUS
  0
ENDTAB
  0
ENDSEC
  0
SECTION
  2
BLOCKS
  0
ENDSEC
  0
SECTION
  2
ENTITIES
  0
CIRCLE
  8
0
  10
2.187007885312
  20
2.187007885312
  30
0
  40
0.127952756736
  0
CIRCLE
  8
0
  10
3.187003621376
  20
2.13147451392
  30
0
  40
0.024606298112
  0
CIRCLE
  8
0
  10
3.187003621376
  20
2.13147451392
  30
0.065944879104
  40
0.031495999488
  0
CIRCLE
  8
0
  10
3.187004669952
  20
2.24958480384
  30
0
  40
0.024606298112
  0
CIRCLE
  8
0
  10
3.187004669952
  20
2.24958480384
  30
0.065944879104
  40
0.031495999488
  0
LINE
  8
0
  10
3.067913205605
  20
2.305118230384
  30
0.06594488189
  11
3.067913205605
  21
2.068897757943
  31
0.06594488189
  0
LINE
  8
0
  10
3.067913205605
  20
2.068897757943
  30
0.06594488189
  11
3.306102145345
  21
2.068897757943
  31
0.06594488189
  0
LINE
  8
0
  10
3.306102302131
  20
2.068897757943
  30
0.06594488189
  11
3.306102302131
  21
2.305118230384
  31
0.06594488189
  0
LINE
  8
0
  10
3.306102302131
  20
2.305118230384
  30
0.06594488189
  11
3.067913362391
  21
2.305118230384
  31
0.06594488189
  0
LINE
  8
0
  10
4.314960569847
  20
2.187007994164
  30
0.125
  11
4.314960586006
  21
2.000000109092
  31
0.125
  0
LINE
  8
0
  10
4.314960569847
  20
2.000000120148
  30
0.125
  11
4.374015687958
  21
2.000000120148
  31
0.125
  0
LINE
  8
0
  10
4.374015687958
  20
2.000000120148
  30
0.125
  11
4.374015687958
  21
2.374015868179
  31
0.125
  0
LINE
  8
0
  10
4.374015687958
  20
2.374015868179
  30
0.125
  11
3.999999939926
  21
2.374015868179
  31
0.125
  0
LINE
  8
0
  10
3.999999939926
  20
2.374015868179
  30
0.125
  11
3.999999939926
  21
2.305118230384
  31
0.125
  0
LINE
  8
0
  10
3.999999939926
  20
2.305118230384
  30
0.125
  11
2.374015687958
  21
2.305118230384
  31
0.125
  0
LINE
  8
0
  10
2.374015717995
  20
2.305118230384
  30
0.125
  11
2.374015717995
  21
2.374015868179
  31
0.125
  0
LINE
  8
0
  10
2.374015717995
  20
2.374015868179
  30
0.125
  11
1.999999969963
  21
2.374015868179
  31
0.125
  0
LINE
  8
0
  10
1.999999969963
  20
2.374015868179
  30
0.125
  11
1.999999969963
  21
2.000000120148
  31
0.125
  0
LINE
  8
0
  10
1.999999969963
  20
2.000000120148
  30
0.125
  11
2.374015717995
  21
2.000000120148
  31
0.125
  0
LINE
  8
0
  10
2.374015717995
  20
2.000000120148
  30
0.125
  11
2.374015717995
  21
2.068897757943
  31
0.125
  0
LINE
  8
0
  10
2.374015717995
  20
2.068897757943
  30
0.125
  11
3.999999969963
  21
2.068897757943
  31
0.125
  0
LINE
  8
0
  10
3.999999939926
  20
2.068897757943
  30
0.125
  11
3.999999939926
  21
2.000000120148
  31
0.125
  0
LINE
  8
0
  10
3.999999939926
  20
2.000000120148
  30
0.125
  11
4.059055041878
  21
2.000000120148
  31
0.125
  0
LINE
  8
0
  10
4.059055058036
  20
2.000000120148
  30
0.125
  11
4.059055058036
  21
2.187007994164
  31
0.125
  0
ARC
  8
0
  10
4.187007813942
  20
2.187007994164
  30
0.125
  40
0.127952755906
  50
0
  51
180
  0
TEXT
  8
0
  40
0.1
  72
0
  10
3.049212478277
  20
1.606299332746
  30
0
  1
Top
  50
0
  0
LINE
  8
0
  6
DASHED
  10
6.885826681543
  20
2.187007994164
  30
0.125
  11
6.885826697701
  21
2.374015879235
  31
0.125
  0
LINE
  8
0
  6
DASHED
  10
6.885826681543
  20
2.374015868179
  30
0.125
  11
6.944881799653
  21
2.374015868179
  31
0.125
  0
LINE
  8
0
  6
DASHED
  10
6.944881799653
  20
2.374015868179
  30
0.125
  11
6.944881799653
  21
2.000000120148
  31
0.125
  0
LINE
  8
0
  6
DASHED
  10
6.944881799653
  20
2.000000120148
  30
0.125
  11
6.570866051621
  21
2.000000120148
  31
0.125
  0
LINE
  8
0
  6
DASHED
  10
6.570866051621
  20
2.000000120148
  30
0.125
  11
6.570866051621
  21
2.068897757943
  31
0.125
  0
LINE
  8
0
  6
DASHED
  10
6.570866051621
  20
2.068897757943
  30
0.125
  11
4.944881799653
  21
2.068897757943
  31
0.125
  0
LINE
  8
0
  6
DASHED
  10
4.94488182969
  20
2.068897757943
  30
0.125
  11
4.94488182969
  21
2.000000120148
  31
0.125
  0
LINE
  8
0
  6
DASHED
  10
4.94488182969
  20
2.000000120148
  30
0.125
  11
4.570866081658
  21
2.000000120148
  31
0.125
  0
LINE
  8
0
  6
DASHED
  10
4.570866081658
  20
2.000000120148
  30
0.125
  11
4.570866081658
  21
2.374015868179
  31
0.125
  0
LINE
  8
0
  6
DASHED
  10
4.570866081658
  20
2.374015868179
  30
0.125
  11
4.94488182969
  21
2.374015868179
  31
0.125
  0
LINE
  8
0
  6
DASHED
  10
4.94488182969
  20
2.374015868179
  30
0.125
  11
4.94488182969
  21
2.305118230384
  31
0.125
  0
LINE
  8
0
  6
DASHED
  10
4.94488182969
  20
2.305118230384
  30
0.125
  11
6.570866081658
  21
2.305118230384
  31
0.125
  0
LINE
  8
0
  6
DASHED
  10
6.570866051621
  20
2.305118230384
  30
0.125
  11
6.570866051621
  21
2.374015868179
  31
0.125
  0
LINE
  8
0
  6
DASHED
  10
6.570866051621
  20
2.374015868179
  30
0.125
  11
6.629921153573
  21
2.374015868179
  31
0.125
  0
LINE
  8
0
  6
DASHED
  10
6.629921169732
  20
2.374015868179
  30
0.125
  11
6.629921169732
  21
2.187007994164
  31
0.125
  0
ARC
  8
0
  6
DASHED
  10
6.757873925637
  20
2.187007994164
  30
0.125
  40
0.127952755906
  50
-180
  51
0
  0
LINE
  8
0
  6
DASHED
  10
5.6387793173
  20
2.068897757943
  30
0.05905511811
  11
5.6387793173
  21
2.305118230384
  31
0.05905511811
  0
LINE
  8
0
  6
DASHED
  10
5.6387793173
  20
2.305118230384
  30
0.05905511811
  11
5.87696825704
  21
2.305118230384
  31
0.05905511811
  0
LINE
  8
0
  6
DASHED
  10
5.876968413826
  20
2.305118230384
  30
0.05905511811
  11
5.876968413826
  21
2.068897757943
  31
0.05905511811
  0
LINE
  8
0
  6
DASHED
  10
5.876968413826
  20
2.068897757943
  30
0.05905511811
  11
5.638779474086
  21
2.068897757943
  31
0.05905511811
  0
CIRCLE
  8
0
  10
5.757870561495
  20
2.12443118959
  30
0
  40
0.024606299213
  0
CIRCLE
  8
0
  10
5.757869660385
  20
2.24254142581
  30
0
  40
0.024606299213
  0
CIRCLE
  8
0
  10
4.757873955674
  20
2.187007994164
  30
0
  40
0.127952755906
  0
TEXT
  8
0
  40
0.1
  72
0
  10
5.620078665065
  20
1.606299332746
  30
0
  1
Bottom
  50
0
  0
LINE
  8
0
  10
7.515747941385
  20
2.125000137044
  30
2.374015717995
  11
7.515747941385
  21
2.000000138921
  31
2.374015717995
  0
LINE
  8
0
  10
7.141732193354
  20
2.000000138921
  30
2.374015717995
  11
7.141732193354
  21
2.125000137044
  31
2.374015717995
  0
LINE
  8
0
  10
7.141732193354
  20
2.125000137044
  30
2.374015717995
  11
7.515747941385
  21
2.125000137044
  31
2.374015717995
  0
LINE
  8
0
  10
7.515747941385
  20
2.000000138921
  30
2.374015717995
  11
7.141732193354
  21
2.000000138921
  31
2.374015717995
  0
LINE
  8
0
  6
DASHED
  10
7.44685030359
  20
2.125000118271
  30
1.306102482353
  11
7.446850293264
  21
2.06594500016
  31
1.306102482353
  0
LINE
  8
0
  6
DASHED
  10
7.210629820823
  20
2.065945037707
  30
1.306102482353
  11
7.210629831149
  21
2.125000155817
  31
1.306102482353
  0
LINE
  8
0
  6
DASHED
  10
7.210629831149
  20
2.125000159573
  30
1.306102482353
  11
7.44685030359
  21
2.125000118271
  31
1.306102482353
  0
LINE
  8
0
  6
DASHED
  10
7.446850294203
  20
2.06594500016
  30
1.306102482353
  11
7.210629821762
  21
2.065945041462
  31
1.306102482353
  0
LINE
  8
0
  6
DASHED
  10
7.456692823275
  20
2.125000118271
  30
2.314960599884
  11
7.456692801419
  21
2.000000120148
  31
2.314960599884
  0
LINE
  8
0
  6
DASHED
  10
7.200787289608
  20
2.000000157694
  30
2.314960599884
  11
7.200787311464
  21
2.125000155817
  31
2.314960599884
  0
LINE
  8
0
  6
DASHED
  10
7.200787311464
  20
2.125000163015
  30
2.314960599884
  11
7.456692823275
  21
2.125000118271
  31
2.314960599884
  0
LINE
  8
0
  6
DASHED
  10
7.456692804502
  20
2.000000120148
  30
2.314960599884
  11
7.200787292691
  21
2.000000164892
  31
2.314960599884
  0
LINE
  8
0
  10
7.328740067369
  20
2.125000137044
  30
0
  11
7.328740067369
  21
2.000000138921
  31
0
  0
LINE
  8
0
  6
DASHED
  10
7.408879798228
  20
2.06594501424
  30
1.21161843848
  11
7.408879786698
  21
2.000000134228
  31
1.21161843848
  0
LINE
  8
0
  6
DASHED
  10
7.359667188273
  20
2.000000143614
  30
1.21161843848
  11
7.359667199803
  21
2.065945023627
  31
1.21161843848
  0
LINE
  8
0
  6
DASHED
  10
7.359667199803
  20
2.065945022845
  30
1.21161843848
  11
7.408879798228
  21
2.06594501424
  31
1.21161843848
  0
LINE
  8
0
  6
DASHED
  10
7.408879788842
  20
2.000000134228
  30
1.21161843848
  11
7.359667190417
  21
2.000000142832
  31
1.21161843848
  0
LINE
  8
0
  10
7.415769531971
  20
2.000000140798
  30
0
  11
7.352777466061
  21
2.000000140798
  31
0
  0
LINE
  8
0
  10
7.352777466061
  20
2.000000140798
  30
0
  11
7.352777466061
  21
2.065945020811
  31
0
  0
LINE
  8
0
  10
7.352777466061
  20
2.065945018934
  30
0
  11
7.415769531971
  21
2.065945018934
  31
0
  0
LINE
  8
0
  10
7.415769531971
  20
2.065945018934
  30
0
  11
7.415769531971
  21
2.000000138921
  31
0
  0
LINE
  8
0
  10
7.384273499016
  20
2.065945018934
  30
0
  11
7.384273499016
  21
2.000000138921
  31
0
  0
LINE
  8
0
  6
DASHED
  10
7.290769562008
  20
2.06594501424
  30
1.211617537371
  11
7.290769550478
  21
2.000000134228
  31
1.211617537371
  0
LINE
  8
0
  6
DASHED
  10
7.241556952053
  20
2.000000143614
  30
1.211617537371
  11
7.241556963583
  21
2.065945023627
  31
1.211617537371
  0
LINE
  8
0
  6
DASHED
  10
7.241556963583
  20
2.065945022845
  30
1.211617537371
  11
7.290769562008
  21
2.06594501424
  31
1.211617537371
  0
LINE
  8
0
  6
DASHED
  10
7.290769543235
  20
2.000000134228
  30
1.211617537371
  11
7.24155694481
  21
2.000000142832
  31
1.211617537371
  0
LINE
  8
0
  10
7.29765929575
  20
2.000000140798
  30
0
  11
7.23466722984
  21
2.000000140798
  31
0
  0
LINE
  8
0
  10
7.23466722984
  20
2.000000140798
  30
0
  11
7.23466722984
  21
2.065945020811
  31
0
  0
LINE
  8
0
  10
7.23466722984
  20
2.065945018934
  30
0
  11
7.29765929575
  21
2.065945018934
  31
0
  0
LINE
  8
0
  10
7.29765929575
  20
2.065945018934
  30
0
  11
7.29765929575
  21
2.000000138921
  31
0
  0
LINE
  8
0
  10
7.266163262795
  20
2.065945018934
  30
0
  11
7.266163262795
  21
2.000000138921
  31
0
  0
TEXT
  8
0
  40
0.1
  72
0
  10
7.190944791779
  20
1.606299332746
  30
0
  1
Left
  50
0
  0
LINE
  8
0
  10
7.712598335086
  20
2.125000137044
  30
2.374015717995
  11
7.712598335086
  21
2.000000138921
  31
2.374015717995
  0
LINE
  8
0
  10
8.086614083117
  20
2.000000138921
  30
2.374015717995
  11
8.086614083117
  21
2.125000137044
  31
2.374015717995
  0
LINE
  8
0
  10
8.086614083117
  20
2.125000137044
  30
2.374015717995
  11
7.712598335086
  21
2.125000137044
  31
2.374015717995
  0
LINE
  8
0
  10
7.712598335086
  20
2.000000138921
  30
2.374015717995
  11
8.086614083117
  21
2.000000138921
  31
2.374015717995
  0
LINE
  8
0
  6
DASHED
  10
7.781495972881
  20
2.125000118271
  30
1.306102332168
  11
7.781495983207
  21
2.06594500016
  31
1.306102332168
  0
LINE
  8
0
  6
DASHED
  10
8.017716455648
  20
2.065945037707
  30
1.306102332168
  11
8.017716445322
  21
2.125000155817
  31
1.306102332168
  0
LINE
  8
0
  6
DASHED
  10
8.017716445322
  20
2.125000159573
  30
1.306102332168
  11
7.781495972881
  21
2.125000118271
  31
1.306102332168
  0
LINE
  8
0
  6
DASHED
  10
7.781495982268
  20
2.06594500016
  30
1.306102332168
  11
8.017716454709
  21
2.065945041462
  31
1.306102332168
  0
LINE
  8
0
  6
DASHED
  10
7.771653453196
  20
2.125000118271
  30
0.314960629921
  11
7.771653475052
  21
2.000000120148
  31
0.314960629921
  0
LINE
  8
0
  6
DASHED
  10
8.027558986863
  20
2.000000157694
  30
0.314960629921
  11
8.027558965007
  21
2.125000155817
  31
0.314960629921
  0
LINE
  8
0
  6
DASHED
  10
8.027558965007
  20
2.125000163015
  30
0.314960629921
  11
7.771653453196
  21
2.125000118271
  31
0.314960629921
  0
LINE
  8
0
  6
DASHED
  10
7.771653471969
  20
2.000000120148
  30
0.314960629921
  11
8.02755898378
  21
2.000000164892
  31
0.314960629921
  0
LINE
  8
0
  10
7.899606209102
  20
2.125000137044
  30
0
  11
7.899606209102
  21
2.000000138921
  31
0
  0
LINE
  8
0
  6
DASHED
  10
7.819466478243
  20
2.06594501424
  30
1.211609877939
  11
7.819466489773
  21
2.000000134228
  31
1.211609877939
  0
LINE
  8
0
  6
DASHED
  10
7.868679088198
  20
2.000000143614
  30
1.211609877939
  11
7.868679076668
  21
2.065945023627
  31
1.211609877939
  0
LINE
  8
0
  6
DASHED
  10
7.868679076668
  20
2.065945022845
  30
1.211609877939
  11
7.819466478243
  21
2.06594501424
  31
1.211609877939
  0
LINE
  8
0
  6
DASHED
  10
7.819466487629
  20
2.000000134228
  30
1.211609877939
  11
7.868679086054
  21
2.000000142832
  31
1.211609877939
  0
LINE
  8
0
  10
7.8125767445
  20
2.000000140798
  30
0
  11
7.87556881041
  21
2.000000140798
  31
0
  0
LINE
  8
0
  10
7.87556881041
  20
2.000000140798
  30
0
  11
7.87556881041
  21
2.065945020811
  31
0
  0
LINE
  8
0
  10
7.87556881041
  20
2.065945018934
  30
0
  11
7.8125767445
  21
2.065945018934
  31
0
  0
LINE
  8
0
  10
7.8125767445
  20
2.065945018934
  30
0
  11
7.8125767445
  21
2.000000138921
  31
0
  0
LINE
  8
0
  10
7.844072777455
  20
2.065945018934
  30
0
  11
7.844072777455
  21
2.000000138921
  31
0
  0
LINE
  8
0
  6
DASHED
  10
7.937576714463
  20
2.06594501424
  30
1.211610779049
  11
7.937576725993
  21
2.000000134228
  31
1.211610779049
  0
LINE
  8
0
  6
DASHED
  10
7.986789324418
  20
2.000000143614
  30
1.211610779049
  11
7.986789312888
  21
2.065945023627
  31
1.211610779049
  0
LINE
  8
0
  6
DASHED
  10
7.986789312888
  20
2.065945022845
  30
1.211610779049
  11
7.937576714463
  21
2.06594501424
  31
1.211610779049
  0
LINE
  8
0
  6
DASHED
  10
7.937576733236
  20
2.000000134228
  30
1.211610779049
  11
7.986789331661
  21
2.000000142832
  31
1.211610779049
  0
LINE
  8
0
  10
7.930686980721
  20
2.000000140798
  30
0
  11
7.993679046631
  21
2.000000140798
  31
0
  0
LINE
  8
0
  10
7.993679046631
  20
2.000000140798
  30
0
  11
7.993679046631
  21
2.065945020811
  31
0
  0
LINE
  8
0
  10
7.993679046631
  20
2.065945018934
  30
0
  11
7.930686980721
  21
2.065945018934
  31
0
  0
LINE
  8
0
  10
7.930686980721
  20
2.065945018934
  30
0
  11
7.930686980721
  21
2.000000138921
  31
0
  0
LINE
  8
0
  10
7.962183013676
  20
2.065945018934
  30
0
  11
7.962183013676
  21
2.000000138921
  31
0
  0
TEXT
  8
0
  40
0.1
  72
0
  10
7.761810933511
  20
1.606299332746
  30
0
  1
Right
  50
0
  0
LINE
  8
0
  10
8.283464476818
  20
2.125000137044
  30
0.374015748031
  11
8.283464476818
  21
2.000000138921
  31
0.374015748031
  0
LINE
  8
0
  10
10.657480194813
  20
2.000000138921
  30
0.374015748031
  11
10.657480194813
  21
2.125000137044
  31
0.374015748031
  0
LINE
  8
0
  10
10.657480194813
  20
2.125000137044
  30
0.374015748031
  11
8.283464476818
  21
2.125000137044
  31
0.374015748031
  0
LINE
  8
0
  10
8.283464476818
  20
2.000000138921
  30
0.374015748031
  11
10.657480194813
  21
2.000000138921
  31
0.374015748031
  0
LINE
  8
0
  6
DASHED
  10
9.35137771246
  20
2.125000118271
  30
0.305118110236
  11
9.351377722786
  21
2.06594500016
  31
0.305118110236
  0
LINE
  8
0
  6
DASHED
  10
9.589566819311
  20
2.065945037707
  30
0.305118110236
  11
9.589566808986
  21
2.125000155817
  31
0.305118110236
  0
LINE
  8
0
  6
DASHED
  10
9.589566808986
  20
2.125000159917
  30
0.305118110236
  11
9.35137771246
  21
2.125000118271
  31
0.305118110236
  0
LINE
  8
0
  6
DASHED
  10
9.35137771246
  20
2.06594500016
  30
0.305118110236
  11
9.589566808986
  21
2.065945041807
  31
0.305118110236
  0
LINE
  8
0
  6
DASHED
  10
8.342519594928
  20
2.125000118271
  30
0.314960629921
  11
8.342519616784
  21
2.000000120148
  31
0.314960629921
  0
LINE
  8
0
  6
DASHED
  10
8.598425128595
  20
2.000000157694
  30
0.314960629921
  11
8.598425106739
  21
2.125000155817
  31
0.314960629921
  0
LINE
  8
0
  6
DASHED
  10
8.598425106739
  20
2.125000163015
  30
0.314960629921
  11
8.342519594928
  21
2.125000118271
  31
0.314960629921
  0
LINE
  8
0
  6
DASHED
  10
8.342519613702
  20
2.000000120148
  30
0.314960629921
  11
8.598425125513
  21
2.000000164892
  31
0.314960629921
  0
LINE
  8
0
  10
8.470472350834
  20
2.125000137044
  30
0
  11
8.470472350834
  21
2.000000138921
  31
0
  0
LINE
  8
0
  6
DASHED
  10
9.445861756332
  20
2.06594501424
  30
0.267147604875
  11
9.445861767862
  21
2.000000134228
  31
0.267147604875
  0
LINE
  8
0
  6
DASHED
  10
9.495074366288
  20
2.000000143614
  30
0.267147604875
  11
9.495074354757
  21
2.065945023627
  31
0.267147604875
  0
LINE
  8
0
  6
DASHED
  10
9.495074354757
  20
2.065945022845
  30
0.267147604875
  11
9.445861756332
  21
2.06594501424
  31
0.267147604875
  0
LINE
  8
0
  6
DASHED
  10
9.445861756332
  20
2.000000134228
  30
0.267147604875
  11
9.495074354757
  21
2.000000142832
  31
0.267147604875
  0
LINE
  8
0
  10
9.438972172775
  20
2.000000140798
  30
0
  11
9.501963938315
  21
2.000000140798
  31
0
  0
LINE
  8
0
  10
9.501963938315
  20
2.000000140798
  30
0
  11
9.501963938315
  21
2.065945020811
  31
0
  0
LINE
  8
0
  10
9.501963938315
  20
2.065945018934
  30
0
  11
9.438972172775
  21
2.065945018934
  31
0
  0
LINE
  8
0
  10
9.438972172775
  20
2.065945018934
  30
0
  11
9.438972172775
  21
2.000000138921
  31
0
  0
LINE
  8
0
  10
9.470468055545
  20
2.065945018934
  30
0
  11
9.470468055545
  21
2.000000138921
  31
0
  0
LINE
  8
0
  6
DASHED
  10
9.445862657442
  20
2.06594501424
  30
0.149037368654
  11
9.445862668972
  21
2.000000134228
  31
0.149037368654
  0
LINE
  8
0
  6
DASHED
  10
9.495075267397
  20
2.000000143614
  30
0.149037368654
  11
9.495075255867
  21
2.065945023627
  31
0.149037368654
  0
LINE
  8
0
  6
DASHED
  10
9.495075255867
  20
2.065945022845
  30
0.149037368654
  11
9.445862657442
  21
2.06594501424
  31
0.149037368654
  0
LINE
  8
0
  6
DASHED
  10
9.445862657442
  20
2.000000134228
  30
0.149037368654
  11
9.495075255867
  21
2.000000142832
  31
0.149037368654
  0
LINE
  8
0
  10
9.438973073884
  20
2.000000140798
  30
0
  11
9.501964839425
  21
2.000000140798
  31
0
  0
LINE
  8
0
  10
9.501964839425
  20
2.000000140798
  30
0
  11
9.501964839425
  21
2.065945020811
  31
0
  0
LINE
  8
0
  10
9.501964839425
  20
2.065945018934
  30
0
  11
9.438973073884
  21
2.065945018934
  31
0
  0
LINE
  8
0
  10
9.438973073884
  20
2.065945018934
  30
0
  11
9.438973073884
  21
2.000000138921
  31
0
  0
LINE
  8
0
  10
9.470468956654
  20
2.065945018934
  30
0
  11
9.470468956654
  21
2.000000138921
  31
0
  0
TEXT
  8
0
  40
0.1
  72
0
  10
9.332677060225
  20
1.606299332746
  30
0
  1
Front
  50
0
  0
LINE
  8
0
  10
10.854330588513
  20
2.000000148308
  30
0.374015748031
  11
10.854330588513
  21
2.12500014643
  31
0.374015748031
  0
LINE
  8
0
  10
13.228346306508
  20
2.12500014643
  30
0.374015748031
  11
13.228346306508
  21
2.000000148308
  31
0.374015748031
  0
LINE
  8
0
  10
13.228346306508
  20
2.000000148308
  30
0.374015748031
  11
10.854330588513
  21
2.000000148308
  31
0.374015748031
  0
LINE
  8
0
  10
10.854330588513
  20
2.12500014643
  30
0.374015748031
  11
13.228346306508
  21
2.12500014643
  31
0.374015748031
  0
LINE
  8
0
  6
DASHED
  10
11.922243824155
  20
2.000000167081
  30
0.305118110236
  11
11.922243834481
  21
2.059055285191
  31
0.305118110236
  0
LINE
  8
0
  6
DASHED
  10
12.160432931007
  20
2.059055247645
  30
0.305118110236
  11
12.160432920681
  21
2.000000129535
  31
0.305118110236
  0
LINE
  8
0
  6
DASHED
  10
12.160432920681
  20
2.000000125434
  30
0.305118110236
  11
11.922243824155
  21
2.000000167081
  31
0.305118110236
  0
LINE
  8
0
  6
DASHED
  10
11.922243824155
  20
2.059055285191
  30
0.305118110236
  11
12.160432920681
  21
2.059055243545
  31
0.305118110236
  0
LINE
  8
0
  6
DASHED
  10
10.913385706624
  20
2.000000167081
  30
0.314960629921
  11
10.913385728479
  21
2.125000165203
  31
0.314960629921
  0
LINE
  8
0
  6
DASHED
  10
11.16929124029
  20
2.125000127657
  30
0.314960629921
  11
11.169291218435
  21
2.000000129535
  31
0.314960629921
  0
LINE
  8
0
  6
DASHED
  10
11.169291218435
  20
2.000000122337
  30
0.314960629921
  11
10.913385706624
  21
2.000000167081
  31
0.314960629921
  0
LINE
  8
0
  6
DASHED
  10
10.913385725397
  20
2.125000165203
  30
0.314960629921
  11
11.169291237208
  21
2.125000120459
  31
0.314960629921
  0
LINE
  8
0
  10
11.041338462529
  20
2.000000148308
  30
0
  11
11.041338462529
  21
2.12500014643
  31
0
  0
LINE
  8
0
  6
DASHED
  10
12.016727868028
  20
2.059055271111
  30
0.156080741582
  11
12.016727879558
  21
2.125000151124
  31
0.156080741582
  0
LINE
  8
0
  6
DASHED
  10
12.065940477983
  20
2.125000141737
  30
0.156080741582
  11
12.065940466453
  21
2.059055261725
  31
0.156080741582
  0
LINE
  8
0
  6
DASHED
  10
12.065940466453
  20
2.059055262507
  30
0.156080741582
  11
12.016727868028
  21
2.059055271111
  31
0.156080741582
  0
LINE
  8
0
  6
DASHED
  10
12.016727868028
  20
2.125000151124
  30
0.156080741582
  11
12.065940466453
  21
2.125000142519
  31
0.156080741582
  0
LINE
  8
0
  10
12.00983828447
  20
2.125000144553
  30
0
  11
12.07283005001
  21
2.125000144553
  31
0
  0
LINE
  8
0
  10
12.07283005001
  20
2.125000144553
  30
0
  11
12.07283005001
  21
2.059055264541
  31
0
  0
LINE
  8
0
  10
12.07283005001
  20
2.059055266418
  30
0
  11
12.00983828447
  21
2.059055266418
  31
0
  0
LINE
  8
0
  10
12.00983828447
  20
2.059055266418
  30
0
  11
12.00983828447
  21
2.12500014643
  31
0
  0
LINE
  8
0
  10
12.04133416724
  20
2.059055266418
  30
0
  11
12.04133416724
  21
2.12500014643
  31
0
  0
LINE
  8
0
  6
DASHED
  10
12.016728769137
  20
2.059055271111
  30
0.274190977802
  11
12.016728780667
  21
2.125000151124
  31
0.274190977802
  0
LINE
  8
0
  6
DASHED
  10
12.065941379093
  20
2.125000141737
  30
0.274190977802
  11
12.065941367562
  21
2.059055261725
  31
0.274190977802
  0
LINE
  8
0
  6
DASHED
  10
12.065941367562
  20
2.059055262507
  30
0.274190977802
  11
12.016728769137
  21
2.059055271111
  31
0.274190977802
  0
LINE
  8
0
  6
DASHED
  10
12.016728769137
  20
2.125000151124
  30
0.274190977802
  11
12.065941367562
  21
2.125000142519
  31
0.274190977802
  0
LINE
  8
0
  10
12.00983918558
  20
2.125000144553
  30
0
  11
12.07283095112
  21
2.125000144553
  31
0
  0
LINE
  8
0
  10
12.07283095112
  20
2.125000144553
  30
0
  11
12.07283095112
  21
2.059055264541
  31
0
  0
LINE
  8
0
  10
12.07283095112
  20
2.059055266418
  30
0
  11
12.00983918558
  21
2.059055266418
  31
0
  0
LINE
  8
0
  10
12.00983918558
  20
2.059055266418
  30
0
  11
12.00983918558
  21
2.12500014643
  31
0
  0
LINE
  8
0
  10
12.04133506835
  20
2.059055266418
  30
0
  11
12.04133506835
  21
2.12500014643
  31
0
  0
TEXT
  8
0
  40
0.1
  72
0
  10
11.90354317192
  20
1.606299332746
  30
0
  1
Back
  50
0
  0
LINE
  8
0
  10
-0.000000030037
  20
1.000000120148
  30
0
  11
-0.000000030037
  21
0.000000120148
  31
0
  0
LINE
  8
0
  10
-0.000000030037
  20
1.000000120148
  30
0
  11
0.999999969963
  21
1.000000120148
  31
0
  0
LINE
  8
0
  10
0.999999969963
  20
0.000000120148
  30
0
  11
0.999999969963
  21
1.000000120148
  31
0
  0
LINE
  8
0
  10
-0.000000030037
  20
0.000000120148
  30
0
  11
0.999999969963
  21
0.000000120148
  31
0
  0
TEXT
  8
0
  40
0.1
  72
0
  10
0.299212568388
  20
0.692913505975
  30
0
  1
1"x1"
  50
0
  0
TEXT
  8
0
  40
0.1
  72
0
  10
0.275590521144
  20
0.43307098629
  30
0
  1
scaling
  50
0
  0
TEXT
  8
0
  40
0.1
  72
0
  10
0.208661387286
  20
0.177165474479
  30
0
  1
reference
  50
0
  0
ENDSEC
  0
EOF
